<?xml version="1.0" encoding="utf-8"?>
<!-- Generator: Adobe Illustrator 24.2.1, SVG Export Plug-In . SVG Version: 6.00 Build 0)  -->
<svg version="1.1" id="Layer_1" xmlns="http://www.w3.org/2000/svg" xmlns:xlink="http://www.w3.org/1999/xlink" x="0px" y="0px"
	 viewBox="0 0 800 600" style="enable-background:new 0 0 800 600;" xml:space="preserve">
<style type="text/css">
	.st0{fill:#105740;}
	.st1{fill:#FFFFFF;}
	.st2{fill:#F2A541;}
</style>
<rect class="st0" width="800" height="600"/>
<g>
	<g>
		<path class="st1" d="M314.49,440.89c-2.21,2.18-5.07,3.2-8.18,3.2c-7.99,0-11.37-5.5-11.4-11.09c-0.03-5.62,3.63-11.34,11.4-11.34
			c2.92,0,5.69,1.11,7.9,3.29l-2.71,2.61c-1.41-1.38-3.32-2.03-5.19-2.03c-5.19,0-7.44,3.87-7.41,7.47
			c0.03,3.56,2.09,7.28,7.41,7.28c1.87,0,4-0.77,5.41-2.18L314.49,440.89z"/>
		<path class="st1" d="M339.45,432.96c-0.06,5.56-3.47,11.13-11.03,11.13c-7.56,0-11.06-5.44-11.06-11.09
			c0-5.66,3.63-11.34,11.06-11.34C335.83,421.65,339.51,427.34,339.45,432.96z M321.35,433.05c0.09,3.53,2,7.31,7.07,7.31
			c5.07,0,6.98-3.81,7.04-7.35c0.06-3.63-1.97-7.68-7.04-7.68C323.35,425.34,321.26,429.43,321.35,433.05z"/>
		<path class="st1" d="M358.11,422.05h4.06v21.55h-2.52v0.03l-11.31-14.54v14.51h-4.06v-21.52h3.29l10.54,13.34V422.05z"/>
		<path class="st1" d="M381.04,427.27c-0.74-1.23-2.77-2.4-5.1-2.4c-3.01,0-4.46,1.26-4.46,2.86c0,1.87,2.21,2.4,4.8,2.7
			c4.49,0.55,8.67,1.72,8.67,6.85c0,4.79-4.24,6.85-9.04,6.85c-4.4,0-7.78-1.35-9.37-5.29l3.38-1.75c0.95,2.37,3.44,3.41,6.05,3.41
			c2.55,0,4.95-0.89,4.95-3.23c0-2.03-2.12-2.86-4.98-3.17c-4.4-0.52-8.45-1.69-8.45-6.52c0-4.43,4.37-6.24,8.33-6.27
			c3.35,0,6.82,0.95,8.45,4.27L381.04,427.27z"/>
		<path class="st1" d="M408.49,422.11v12.32c0,6.36-3.9,9.62-9.31,9.62c-5.16,0-9.56-3.13-9.56-9.62v-12.32h4.03v12.32
			c0,3.87,2.21,5.93,5.56,5.93c3.35,0,5.26-2.24,5.26-5.93v-12.32H408.49z"/>
		<path class="st1" d="M418.05,422.08v17.77h11.06v3.75h-15.12v-21.52H418.05z"/>
		<path class="st1" d="M435.88,425.77h-6.82v-3.69c6.21,0,11.46,0,17.7,0v3.69h-6.82v17.83h-4.06V425.77z"/>
		<path class="st1" d="M450.79,443.59v-21.52h4.03v21.52H450.79z"/>
		<path class="st1" d="M474.3,422.05h4.06v21.55h-2.52v0.03l-11.31-14.54v14.51h-4.06v-21.52h3.29l10.54,13.34V422.05z"/>
		<path class="st1" d="M499.6,427.34c-1.44-1.38-3.6-2.15-5.47-2.15c-4.61,0-7.41,3.5-7.41,7.93c0,3.53,2.06,7.19,7.41,7.19
			c1.69,0,3.17-0.37,4.86-1.72v-3.81h-5.5v-3.63h9.22v9.07c-2.12,2.43-4.79,3.87-8.57,3.87c-8.08,0-11.37-5.32-11.37-10.97
			c0-6.05,3.78-11.65,11.37-11.65c2.89,0,5.78,1.11,7.99,3.29L499.6,427.34z"/>
	</g>
	<g>
		<path class="st2" d="M392.77,220.23l49.18,80.7V166.85l-129.54,42.09c-10.43,3.41-17.5,13.13-17.5,24.1v97.47
			c0,11.03,7.12,20.78,17.6,24.14l55.03,17.63V220.23H392.77z M344.18,342.63h-25.22v-122.4h25.22V342.63z"/>
		<path class="st1" d="M471.92,157.12l-4.83,1.57v183.95h-25.22l-49.1-80.54v118.28l79.25,25.39c16.34,5.25,33.06-6.95,33.06-24.12
			V181.2C505.09,164,488.29,151.78,471.92,157.12z"/>
	</g>
</g>
</svg>
