<?xml version="1.0" encoding="utf-8"?>
<!-- Generator: Adobe Illustrator 24.2.1, SVG Export Plug-In . SVG Version: 6.00 Build 0)  -->
<svg version="1.1" id="Layer_1" xmlns="http://www.w3.org/2000/svg" xmlns:xlink="http://www.w3.org/1999/xlink" x="0px" y="0px"
	 viewBox="0 0 800 600" style="enable-background:new 0 0 800 600;" xml:space="preserve">
<style type="text/css">
	.st0{fill:#105740;}
	.st1{fill:#F2A541;}
	.st2{fill:#FFFFFF;}
</style>
<rect class="st0" width="800" height="600"/>
<g>
	<g>
		<path class="st1" d="M556.06,369.57c-1.94,1.92-4.46,2.81-7.19,2.81c-7.02,0-9.99-4.83-10.02-9.75
			c-0.03-4.94,3.19-9.97,10.02-9.97c2.57,0,5,0.97,6.94,2.89l-2.38,2.3c-1.24-1.22-2.92-1.78-4.56-1.78c-4.56,0-6.54,3.4-6.51,6.56
			c0.03,3.13,1.84,6.4,6.51,6.4c1.65,0,3.51-0.67,4.75-1.92L556.06,369.57z"/>
		<path class="st1" d="M578,362.6c-0.05,4.89-3.05,9.78-9.7,9.78c-6.64,0-9.72-4.78-9.72-9.75c0-4.97,3.19-9.97,9.72-9.97
			C574.81,352.66,578.05,357.66,578,362.6z M562.09,362.68c0.08,3.11,1.76,6.43,6.21,6.43c4.46,0,6.13-3.35,6.19-6.45
			c0.05-3.19-1.73-6.75-6.19-6.75C563.84,355.9,562.01,359.49,562.09,362.68z"/>
		<path class="st1" d="M594.39,353.01h3.57v18.93h-2.22v0.03l-9.94-12.78v12.75h-3.57v-18.91h2.89l9.26,11.72V353.01z"/>
		<path class="st1" d="M614.54,357.6c-0.65-1.08-2.43-2.11-4.48-2.11c-2.65,0-3.92,1.11-3.92,2.51c0,1.65,1.95,2.11,4.21,2.38
			c3.94,0.49,7.62,1.51,7.62,6.02c0,4.21-3.73,6.02-7.94,6.02c-3.86,0-6.83-1.19-8.24-4.64l2.97-1.54c0.84,2.08,3.02,3,5.32,3
			c2.24,0,4.35-0.78,4.35-2.84c0-1.78-1.86-2.51-4.38-2.78c-3.86-0.46-7.43-1.49-7.43-5.73c0-3.89,3.84-5.48,7.32-5.51
			c2.94,0,6,0.84,7.43,3.75L614.54,357.6z"/>
		<path class="st1" d="M638.66,353.06v10.83c0,5.59-3.43,8.45-8.18,8.45c-4.54,0-8.4-2.75-8.4-8.45v-10.83h3.54v10.83
			c0,3.4,1.94,5.21,4.89,5.21c2.94,0,4.62-1.97,4.62-5.21v-10.83H638.66z"/>
		<path class="st1" d="M647.07,353.04v15.61h9.72v3.3H643.5v-18.91H647.07z"/>
		<path class="st1" d="M662.73,356.28h-6v-3.24c5.46,0,10.07,0,15.56,0v3.24h-6v15.67h-3.57V356.28z"/>
		<path class="st1" d="M675.83,371.94v-18.91h3.54v18.91H675.83z"/>
		<path class="st1" d="M696.5,353.01h3.57v18.93h-2.21v0.03l-9.94-12.78v12.75h-3.57v-18.91h2.89l9.26,11.72V353.01z"/>
		<path class="st1" d="M718.73,357.66c-1.27-1.22-3.16-1.89-4.81-1.89c-4.05,0-6.51,3.08-6.51,6.97c0,3.11,1.81,6.32,6.51,6.32
			c1.49,0,2.78-0.32,4.27-1.51v-3.35h-4.83v-3.19h8.1v7.97c-1.86,2.13-4.21,3.4-7.54,3.4c-7.1,0-9.99-4.67-9.99-9.64
			c0-5.32,3.32-10.24,9.99-10.24c2.54,0,5.08,0.97,7.02,2.89L718.73,357.66z"/>
	</g>
	<g>
		<g>
			<path class="st2" d="M127.5,302.72c-1.99-1.87-4.46-3.55-7.44-5.02c-2.97-1.48-6.41-2.83-10.32-4.04
				c-4.66-1.38-8.19-2.86-10.61-4.45c-2.41-1.59-3.62-3.58-3.62-5.94c0-1.15,0.24-2.24,0.72-3.25c0.47-1.02,1.18-1.9,2.12-2.66
				c0.94-0.75,2.12-1.34,3.55-1.77c1.42-0.42,3.1-0.63,5.05-0.63c2,0,3.74,0.25,5.22,0.77c1.47,0.5,2.7,1.22,3.69,2.14
				c0.99,0.92,1.71,2.03,2.2,3.31c0.47,1.28,0.71,2.67,0.71,4.18h14.77c0-3.21-0.62-6.18-1.86-8.89c-1.25-2.71-3.02-5.05-5.32-7.01
				c-2.3-1.98-5.07-3.51-8.32-4.61c-3.24-1.1-6.86-1.65-10.83-1.65c-3.87,0-7.43,0.48-10.66,1.45c-3.23,0.97-6.03,2.33-8.37,4.06
				c-2.35,1.74-4.16,3.85-5.46,6.33c-1.3,2.48-1.94,5.21-1.94,8.2c0,3.11,0.63,5.84,1.89,8.17s2.98,4.39,5.17,6.18
				c2.19,1.79,4.73,3.35,7.64,4.66c2.9,1.32,6,2.5,9.28,3.55c2.88,0.92,5.24,1.79,7.06,2.61c1.82,0.82,3.24,1.65,4.28,2.51
				c1.04,0.86,1.73,1.78,2.1,2.78c0.36,1.01,0.53,2.13,0.53,3.38c0,1.15-0.21,2.23-0.66,3.22c-0.44,1.01-1.13,1.86-2.05,2.59
				c-0.93,0.72-2.09,1.29-3.5,1.69c-1.41,0.41-3.07,0.61-4.98,0.61c-2.14,0-4.07-0.21-5.8-0.63c-1.74-0.43-3.22-1.11-4.46-2.05
				c-1.23-0.94-2.19-2.16-2.87-3.67c-0.7-1.51-1.04-3.35-1.04-5.51H78.53c0,2.69,0.38,5.14,1.16,7.36c0.77,2.22,1.83,4.19,3.2,5.94
				c1.36,1.74,2.95,3.24,4.8,4.53c1.83,1.28,3.83,2.35,5.99,3.19c2.15,0.86,4.4,1.49,6.77,1.89c2.36,0.41,4.73,0.61,7.08,0.61
				c3.94,0,7.51-0.44,10.71-1.35c3.2-0.91,5.94-2.2,8.2-3.89c2.26-1.69,4.01-3.77,5.24-6.23c1.23-2.47,1.84-5.27,1.84-8.42
				c0-2.95-0.5-5.59-1.52-7.92C130.99,306.69,129.49,304.59,127.5,302.72z"/>
			<path class="st2" d="M139.1,264.16v11.96h21.66v59.73h14.77v-59.73h21.96v-11.96H139.1z"/>
			<path class="st2" d="M234.33,264.16h-13.68l-26.69,71.7h15.71l4.93-14.77h25.9l4.98,14.77h15.7L234.33,264.16z M218.58,309.11
				l8.91-26.83l9.01,26.83H218.58z"/>
			<path class="st2" d="M308.19,305.87c1.98-0.89,3.74-1.93,5.32-3.15c1.57-1.22,2.92-2.63,4.04-4.26c1.11-1.62,1.96-3.48,2.56-5.56
				c0.58-2.09,0.89-4.43,0.89-7.06c0-3.55-0.61-6.66-1.82-9.36c-1.22-2.69-2.95-4.95-5.22-6.76c-2.27-1.82-5.04-3.2-8.32-4.14
				c-3.29-0.94-6.99-1.4-11.12-1.4h-26.64v71.7h14.77v-26.25h11.77l13.44,26.25h15.85v-0.7L308.19,305.87z M305.48,291.37
				c-0.48,1.29-1.22,2.41-2.19,3.35c-0.97,0.94-2.19,1.65-3.65,2.17c-1.46,0.5-3.15,0.77-5.09,0.77h-11.92v-21.52h11.87
				c3.97,0,6.91,0.97,8.84,2.91c1.91,1.93,2.88,4.6,2.88,7.97C306.23,288.62,305.97,290.07,305.48,291.37z"/>
			<path class="st2" d="M325.33,264.16v11.96H347v59.73h14.77v-59.73h21.96v-11.96H325.33z"/>
			<path class="st2" d="M592.42,284.45c-1.61-4.2-3.85-7.8-6.73-10.81c-2.87-3-6.32-5.33-10.34-6.98
				c-4.02-1.66-8.44-2.49-13.27-2.49h-22.06v71.7h21.92c4.86,0,9.3-0.83,13.34-2.47c4.04-1.63,7.51-3.96,10.41-6.96
				c2.91-3,5.16-6.6,6.75-10.78c1.59-4.19,2.39-8.84,2.39-13.97v-3.24C594.82,293.31,594.02,288.65,592.42,284.45z M579.86,301.68
				c0,7.16-1.53,12.67-4.58,16.53c-3.05,3.86-7.5,5.78-13.34,5.78h-7.14v-47.86h7.29c5.81,0,10.23,1.88,13.25,5.64
				c3.01,3.76,4.53,9.28,4.53,16.57V301.68z"/>
			<path class="st2" d="M620.33,323.99v-19.21h28.37v-11.57h-28.37v-17.09h33.19v-11.96h-47.97v71.7h48.07v-11.87H620.33z"/>
			<path class="st2" d="M705.02,264.16l-16.24,53.92l-16.15-53.92h-16.39l24.86,71.7h15.42l24.96-71.7H705.02z"/>
		</g>
		<g>
			<path class="st1" d="M458.48,264.16l28.81,47.27v-78.54l-75.88,24.66c-6.11,2-10.25,7.69-10.25,14.12v57.09
				c0,6.46,4.17,12.17,10.31,14.14l32.24,10.33v-89.07H458.48z M430.02,335.86h-14.77v-71.7h14.77V335.86z"/>
			<path class="st2" d="M504.84,227.19l-2.83,0.92v107.75h-14.77l-28.76-47.18v69.28l46.42,14.87c9.57,3.07,19.37-4.07,19.37-14.13
				V241.3C524.27,231.22,514.43,224.07,504.84,227.19z"/>
		</g>
	</g>
</g>
</svg>
