<?xml version="1.0" encoding="utf-8"?>
<!-- Generator: Adobe Illustrator 24.2.1, SVG Export Plug-In . SVG Version: 6.00 Build 0)  -->
<svg version="1.1" id="Layer_1" xmlns="http://www.w3.org/2000/svg" xmlns:xlink="http://www.w3.org/1999/xlink" x="0px" y="0px"
	 viewBox="0 0 800 600" style="enable-background:new 0 0 800 600;" xml:space="preserve">
<style type="text/css">
	.st0{fill:#F2A541;}
	.st1{fill:#105740;}
</style>
<g>
	<g>
		<path class="st0" d="M552.16,367.83c-1.9,1.87-4.35,2.74-7.01,2.74c-6.85,0-9.74-4.71-9.77-9.51c-0.03-4.82,3.11-9.72,9.77-9.72
			c2.5,0,4.87,0.95,6.77,2.82l-2.32,2.24c-1.21-1.19-2.84-1.74-4.45-1.74c-4.45,0-6.37,3.32-6.35,6.4c0.03,3.05,1.79,6.24,6.35,6.24
			c1.61,0,3.42-0.66,4.63-1.87L552.16,367.83z"/>
		<path class="st0" d="M573.54,361.03c-0.05,4.77-2.98,9.53-9.45,9.53s-9.48-4.66-9.48-9.51c0-4.85,3.11-9.72,9.48-9.72
			C570.43,351.34,573.59,356.21,573.54,361.03z M558.03,361.11c0.08,3.03,1.71,6.27,6.06,6.27c4.35,0,5.98-3.27,6.03-6.29
			c0.05-3.11-1.69-6.58-6.03-6.58C559.74,354.5,557.95,358,558.03,361.11z"/>
		<path class="st0" d="M589.53,351.68H593v18.46h-2.16v0.03l-9.69-12.46v12.43h-3.48v-18.43h2.82l9.03,11.43V351.68z"/>
		<path class="st0" d="M609.18,356.16c-0.63-1.05-2.37-2.05-4.37-2.05c-2.58,0-3.82,1.08-3.82,2.45c0,1.61,1.9,2.05,4.11,2.32
			c3.84,0.47,7.43,1.47,7.43,5.87c0,4.11-3.63,5.87-7.74,5.87c-3.77,0-6.66-1.16-8.03-4.53l2.9-1.5c0.82,2.03,2.95,2.92,5.19,2.92
			c2.19,0,4.24-0.76,4.24-2.76c0-1.74-1.82-2.45-4.27-2.71c-3.77-0.45-7.24-1.45-7.24-5.58c0-3.79,3.74-5.35,7.14-5.37
			c2.87,0,5.85,0.82,7.24,3.66L609.18,356.16z"/>
		<path class="st0" d="M632.69,351.74v10.56c0,5.45-3.34,8.24-7.98,8.24c-4.42,0-8.19-2.69-8.19-8.24v-10.56h3.45v10.56
			c0,3.32,1.9,5.08,4.77,5.08c2.87,0,4.5-1.92,4.5-5.08v-10.56H632.69z"/>
		<path class="st0" d="M640.88,351.71v15.22h9.48v3.21h-12.96v-18.43H640.88z"/>
		<path class="st0" d="M656.16,354.87h-5.85v-3.16c5.32,0,9.82,0,15.17,0v3.16h-5.85v15.27h-3.48V354.87z"/>
		<path class="st0" d="M668.93,370.14v-18.43h3.45v18.43H668.93z"/>
		<path class="st0" d="M689.08,351.68h3.48v18.46h-2.16v0.03l-9.69-12.46v12.43h-3.48v-18.43h2.82l9.03,11.43V351.68z"/>
		<path class="st0" d="M710.75,356.21c-1.24-1.19-3.08-1.84-4.69-1.84c-3.95,0-6.35,3-6.35,6.79c0,3.03,1.76,6.16,6.35,6.16
			c1.45,0,2.71-0.32,4.16-1.47v-3.26h-4.71v-3.11h7.9v7.77c-1.82,2.08-4.11,3.32-7.35,3.32c-6.93,0-9.74-4.56-9.74-9.4
			c0-5.19,3.24-9.98,9.74-9.98c2.48,0,4.95,0.95,6.85,2.82L710.75,356.21z"/>
	</g>
	<g>
		<g>
			<path class="st1" d="M134.32,302.65c-1.94-1.83-4.35-3.46-7.25-4.89c-2.9-1.44-6.25-2.76-10.06-3.94
				c-4.54-1.35-7.99-2.79-10.35-4.34c-2.35-1.55-3.53-3.49-3.53-5.79c0-1.12,0.24-2.18,0.7-3.17c0.46-0.99,1.15-1.86,2.06-2.59
				c0.91-0.73,2.06-1.31,3.46-1.73c1.39-0.41,3.03-0.62,4.92-0.62c1.95,0,3.64,0.25,5.09,0.75c1.43,0.49,2.63,1.19,3.6,2.08
				c0.96,0.89,1.67,1.97,2.14,3.22c0.46,1.25,0.69,2.6,0.69,4.08h14.4c0-3.13-0.61-6.02-1.82-8.67c-1.22-2.64-2.95-4.92-5.19-6.84
				c-2.24-1.93-4.94-3.42-8.12-4.49c-3.16-1.07-6.69-1.61-10.56-1.61c-3.77,0-7.24,0.47-10.39,1.41c-3.15,0.94-5.88,2.27-8.16,3.96
				c-2.29,1.7-4.06,3.75-5.32,6.17c-1.27,2.42-1.9,5.08-1.9,8c0,3.04,0.62,5.7,1.85,7.97s2.91,4.28,5.04,6.02
				c2.13,1.75,4.61,3.26,7.45,4.54c2.83,1.29,5.85,2.44,9.05,3.46c2.81,0.89,5.11,1.75,6.89,2.54c1.78,0.8,3.16,1.61,4.18,2.45
				c1.01,0.84,1.69,1.74,2.04,2.71c0.35,0.98,0.52,2.07,0.52,3.29c0,1.12-0.21,2.17-0.64,3.14c-0.43,0.98-1.1,1.82-1.99,2.52
				c-0.9,0.7-2.03,1.26-3.41,1.65c-1.38,0.4-3,0.6-4.85,0.6c-2.08,0-3.97-0.21-5.66-0.62c-1.7-0.42-3.14-1.08-4.35-1.99
				c-1.2-0.91-2.13-2.1-2.8-3.58c-0.68-1.47-1.01-3.26-1.01-5.37H86.57c0,2.62,0.37,5.01,1.13,7.17c0.75,2.16,1.79,4.09,3.12,5.79
				c1.33,1.7,2.88,3.16,4.68,4.42c1.79,1.25,3.73,2.29,5.84,3.11c2.09,0.84,4.29,1.45,6.6,1.85c2.3,0.4,4.61,0.6,6.91,0.6
				c3.84,0,7.32-0.43,10.44-1.32c3.12-0.88,5.79-2.14,8-3.79c2.2-1.65,3.91-3.67,5.11-6.07c1.2-2.41,1.8-5.14,1.8-8.21
				c0-2.88-0.49-5.45-1.48-7.72C137.72,306.52,136.26,304.47,134.32,302.65z"/>
			<path class="st1" d="M145.63,265.06v11.66h21.12v58.24h14.4v-58.24h21.41v-11.66H145.63z"/>
			<path class="st1" d="M238.47,265.06h-13.34l-26.03,69.9h15.32l4.8-14.4h25.25l4.85,14.4h15.31L238.47,265.06z M223.12,308.89
				l8.68-26.16l8.78,26.16H223.12z"/>
			<path class="st1" d="M310.49,305.72c1.93-0.86,3.64-1.89,5.19-3.08c1.53-1.19,2.85-2.56,3.94-4.16c1.08-1.58,1.92-3.39,2.5-5.42
				c0.57-2.03,0.86-4.32,0.86-6.89c0-3.46-0.6-6.49-1.78-9.13c-1.19-2.62-2.88-4.82-5.09-6.59c-2.21-1.78-4.91-3.12-8.12-4.04
				c-3.2-0.91-6.82-1.37-10.85-1.37h-25.98v69.9h14.4v-25.59h11.48l13.11,25.59h15.45v-0.68L310.49,305.72z M307.84,291.58
				c-0.47,1.26-1.19,2.35-2.13,3.26c-0.94,0.91-2.13,1.61-3.56,2.11c-1.42,0.49-3.08,0.75-4.96,0.75h-11.62v-20.99h11.57
				c3.87,0,6.74,0.94,8.62,2.84c1.87,1.89,2.81,4.48,2.81,7.77C308.57,288.9,308.33,290.32,307.84,291.58z"/>
			<path class="st1" d="M327.2,265.06v11.66h21.12v58.24h14.4v-58.24h21.41v-11.66H327.2z"/>
			<path class="st1" d="M587.6,284.84c-1.57-4.1-3.75-7.6-6.56-10.54c-2.8-2.93-6.16-5.2-10.08-6.81
				c-3.92-1.62-8.23-2.43-12.94-2.43h-21.51v69.9h21.37c4.74,0,9.07-0.81,13.01-2.41c3.94-1.59,7.32-3.86,10.15-6.79
				c2.84-2.93,5.03-6.44,6.58-10.51c1.55-4.09,2.33-8.62,2.33-13.62v-3.16C589.95,293.48,589.16,288.93,587.6,284.84z
				 M575.36,301.64c0,6.99-1.49,12.35-4.47,16.11s-7.31,5.64-13.01,5.64h-6.97v-46.67h7.1c5.67,0,9.97,1.84,12.92,5.5
				c2.94,3.66,4.42,9.05,4.42,16.15V301.64z"/>
			<path class="st1" d="M614.82,323.39v-18.73h27.66v-11.28h-27.66v-16.66h32.36v-11.66h-46.77v69.9h46.86v-11.57H614.82z"/>
			<path class="st1" d="M697.39,265.06l-15.84,52.57l-15.75-52.57h-15.98l24.24,69.9h15.03l24.34-69.9H697.39z"/>
		</g>
		<g>
			<path class="st0" d="M457.01,265.06l28.09,46.09v-76.57l-73.98,24.04c-5.95,1.95-9.99,7.5-9.99,13.76v55.67
				c0,6.3,4.07,11.87,10.05,13.78l31.43,10.07v-86.84H457.01z M429.27,334.96h-14.4v-69.9h14.4V334.96z"/>
			<path class="st1" d="M502.22,229.01l-2.76,0.9v105.05h-14.4l-28.04-46v67.55l45.26,14.5c9.33,3,18.88-3.97,18.88-13.77V242.77
				C521.16,232.94,511.57,225.97,502.22,229.01z"/>
		</g>
	</g>
</g>
</svg>
