<?xml version="1.0" encoding="utf-8"?>
<!-- Generator: Adobe Illustrator 24.2.1, SVG Export Plug-In . SVG Version: 6.00 Build 0)  -->
<svg version="1.1" id="Layer_1" xmlns="http://www.w3.org/2000/svg" xmlns:xlink="http://www.w3.org/1999/xlink" x="0px" y="0px"
	 viewBox="0 0 800 600" style="enable-background:new 0 0 800 600;" xml:space="preserve">
<style type="text/css">
	.st0{fill:#105740;}
	.st1{fill:#F1A643;}
	.st2{fill:#F2A541;}
</style>
<g>
	<g>
		<path class="st0" d="M522.78,285.49c3.34-6.55,10.07-11.21,17.39-12.04c7.47-1.15,15.96,0.43,21.31,6.11
			c2.54,2.5,3.92,5.87,4.99,9.21c-2.37,0.03-4.73,0.04-7.09-0.03c-1.29-4.86-5.45-8.63-10.36-9.57c-4.77-0.83-10.02-0.55-14.23,2.05
			c-4.85,2.85-7.79,8.21-8.6,13.67c-0.98,6.85-0.17,14.5,4.44,19.97c3.17,3.97,8.3,6.06,13.34,5.8c5.01,0.28,10.33-1.69,13.23-5.93
			c2.57-3.45,3.45-7.79,3.77-12c-4.87,0.01-9.74-0.07-14.61,0.07c-0.16-1.58-0.26-3.16-0.27-4.73c7.13-0.12,14.25-0.07,21.38-0.04
			c-0.16,9.11-0.04,18.23-0.04,27.35c-1.92,0.04-3.83,0.07-5.74,0.07c-0.22-2.78-0.36-5.56-0.48-8.34
			c-2.59,3.69-5.97,7.05-10.44,8.26c-7.44,1.98-15.99,0.88-22.07-4.07c-6.3-5.02-9.26-13.32-9.12-21.22
			C519.42,295.05,520.49,289.97,522.78,285.49z"/>
		<path class="st0" d="M742.45,286.79c-0.51,0.05-1.54,0.16-2.06,0.21c-0.04-2.86-0.01-5.73,0.03-8.59
			c-1.15,2.8-1.82,5.76-3.04,8.54c-2.91,0.94-2.55-2.84-3.37-4.56c-0.4-1.33-0.85-2.64-1.28-3.94v8.6c-0.1,0.05-0.19,0.08-0.27,0.11
			h-1.78v-8.06c0.01-1.09,0.01-2.17,0.01-3.26c1.06,0.01,2.13,0.01,3.21,0.02c0.89,2.86,1.69,5.74,2.64,8.58
			c0.9-2.86,1.84-5.71,2.75-8.57c1.06-0.02,2.14-0.03,3.23-0.05C742.42,279.48,742.65,283.14,742.45,286.79z"/>
		<path class="st0" d="M729.34,275.95v2h-3.19c-0.29,3.03-0.2,6.08-0.31,9.13c-0.77-0.08-1.53-0.16-2.28-0.23
			c0-2.97,0-5.93,0.01-8.89c-0.98-0.02-1.95-0.03-2.91-0.05c-0.02-0.5-0.05-1.5-0.07-2.01c2.69-0.03,5.38-0.09,8.08,0.03
			C728.89,275.93,729.12,275.94,729.34,275.95z"/>
		<path class="st0" d="M582.86,295.72c2.65-4.95,8.03-7.73,13.56-7.79c0.05,2.17,0.06,4.33,0.09,6.5c-3.97,0.04-8.5,0.65-11.14,3.96
			c-2.53,2.88-2.51,6.92-2.44,10.54c0.04,5.47-0.06,10.93,0.07,16.4c-2.08,0.12-4.15,0.11-6.23,0.1
			c-0.07-12.14-0.01-24.28-0.03-36.41c1.85-0.02,3.71-0.04,5.57-0.09C582.33,291.21,582.56,293.46,582.86,295.72z"/>
		<g>
			<path class="st0" d="M614.1,288.62c4.64-1.11,9.73-0.51,13.91,1.83c4.39,2.82,7.9,7.37,8.54,12.65
				c1.14,6.73-0.54,14.38-6.02,18.85c-7.41,6.66-20.47,5.58-26.26-2.68c-3.26-3.86-4.06-9.15-3.65-14.04
				C600.79,297.55,606.65,290.39,614.1,288.62z M615.01,293.96c-8.97,3.13-10.51,15.8-5.22,22.77c4.42,5.88,14.48,5.42,18.41-0.79
				c3.71-6.18,3.34-15.55-2.59-20.26C622.68,293.26,618.55,293.09,615.01,293.96z"/>
		</g>
		<g>
			<path class="st0" d="M693.58,294.84c2.46-2.91,5.54-5.69,9.43-6.35c5.27-1.09,11.26-0.13,15.31,3.62
				c9.38,7.74,8.8,24.67-1.53,31.35c-7.17,4.81-18.42,3.5-23.25-4.05c-0.04,7.37,0.02,14.74-0.05,22.11
				c-2.07-0.01-4.12-0.01-6.18-0.02c-0.08-17.49-0.01-34.99,0.03-52.47c1.85,0,3.71,0,5.57-0.02
				C693.08,290.96,693.33,292.9,693.58,294.84z M702.62,293.96c-9.99,2.88-11.84,17.76-4.25,24.12c5.01,4.34,13.81,3.49,17.59-2.09
				c4.41-6.2,3.47-16.21-3.05-20.63C709.95,293.24,706.03,293.27,702.62,293.96z"/>
		</g>
		<path class="st0" d="M644.69,289.02c1.99,0,4-0.02,6-0.16c0.17,7.21-0.02,14.43,0.1,21.64c0.23,3.39,1.04,7.28,4.16,9.21
			c3.69,1.92,8.48,1.7,11.81-0.91c2.94-2.37,4.32-6.12,4.38-9.83c0.09-6.63,0.08-13.26,0.04-19.89c2.04-0.24,4.11-0.32,6.17-0.17
			c0.04,12.16-0.03,24.32,0.04,36.47c-1.89,0.04-3.76,0.04-5.63,0.02c-0.09-2.1-0.23-4.18-0.44-6.26
			c-4.25,7.71-15.82,9.55-22.3,3.67c-3.76-3.48-4.41-9-4.38-13.84C644.67,302.32,644.56,295.67,644.69,289.02z"/>
		<path class="st1" d="M732.73,287.05v0.11h-0.27C732.54,287.13,732.63,287.1,732.73,287.05z"/>
	</g>
	<g>
		<g>
			<path class="st0" d="M91.28,301.88c-1.37-1.29-3.08-2.45-5.14-3.47c-2.05-1.02-4.43-1.96-7.13-2.79
				c-3.21-0.95-5.66-1.98-7.33-3.08c-1.66-1.1-2.5-2.47-2.5-4.1c0-0.79,0.17-1.54,0.49-2.25c0.33-0.7,0.81-1.32,1.46-1.84
				c0.65-0.51,1.46-0.93,2.45-1.22c0.98-0.29,2.14-0.44,3.49-0.44c1.38,0,2.58,0.17,3.6,0.53c1.02,0.35,1.86,0.84,2.55,1.48
				c0.68,0.63,1.18,1.4,1.52,2.28c0.33,0.88,0.49,1.84,0.49,2.89h10.2c0-2.22-0.43-4.27-1.29-6.14c-0.86-1.87-2.09-3.49-3.67-4.84
				c-1.59-1.36-3.5-2.42-5.75-3.18c-2.24-0.76-4.74-1.14-7.48-1.14c-2.67,0-5.13,0.33-7.36,1c-2.23,0.67-4.16,1.61-5.78,2.8
				c-1.62,1.2-2.87,2.66-3.77,4.37c-0.9,1.71-1.34,3.6-1.34,5.66c0,2.15,0.44,4.04,1.31,5.64c0.87,1.61,2.06,3.03,3.57,4.27
				c1.51,1.24,3.26,2.31,5.27,3.21c2,0.91,4.14,1.73,6.41,2.45c1.99,0.63,3.62,1.24,4.88,1.8c1.26,0.56,2.24,1.14,2.96,1.73
				c0.72,0.59,1.2,1.23,1.45,1.92c0.25,0.7,0.37,1.47,0.37,2.33c0,0.79-0.15,1.54-0.45,2.23c-0.31,0.7-0.78,1.29-1.41,1.79
				c-0.64,0.49-1.44,0.89-2.41,1.17c-0.97,0.29-2.12,0.42-3.44,0.42c-1.48,0-2.81-0.15-4.01-0.44c-1.2-0.3-2.23-0.77-3.08-1.41
				c-0.85-0.65-1.51-1.49-1.98-2.53c-0.48-1.04-0.72-2.31-0.72-3.81H57.46c0,1.86,0.26,3.55,0.8,5.08c0.53,1.53,1.27,2.89,2.21,4.1
				c0.94,1.2,2.04,2.24,3.31,3.13c1.27,0.88,2.64,1.62,4.13,2.21c1.48,0.59,3.04,1.03,4.68,1.31c1.63,0.29,3.26,0.42,4.89,0.42
				c2.72,0,5.18-0.31,7.4-0.93c2.21-0.63,4.1-1.52,5.66-2.69c1.56-1.17,2.77-2.6,3.62-4.3c0.85-1.7,1.27-3.64,1.27-5.82
				c0-2.04-0.35-3.86-1.05-5.47C93.68,304.62,92.65,303.17,91.28,301.88z"/>
			<path class="st0" d="M99.29,275.25v8.26h14.96v41.25h10.2v-41.25h15.16v-8.26H99.29z"/>
			<path class="st0" d="M165.04,275.25h-9.45l-18.43,49.51h10.85l3.4-10.2h17.88l3.44,10.2h10.84L165.04,275.25z M154.17,306.29
				l6.15-18.53l6.22,18.53H154.17z"/>
			<path class="st0" d="M216.05,304.05c1.36-0.61,2.58-1.34,3.67-2.18c1.09-0.84,2.02-1.82,2.79-2.94c0.77-1.12,1.36-2.4,1.77-3.84
				c0.4-1.44,0.61-3.06,0.61-4.88c0-2.45-0.42-4.6-1.26-6.46c-0.84-1.86-2.04-3.42-3.6-4.67c-1.57-1.26-3.48-2.21-5.75-2.86
				c-2.27-0.65-4.83-0.97-7.68-0.97h-18.4v49.51h10.2v-18.13h8.13l9.28,18.13h10.95v-0.48L216.05,304.05z M214.17,294.04
				c-0.33,0.89-0.84,1.66-1.51,2.31c-0.67,0.65-1.51,1.14-2.52,1.5c-1.01,0.35-2.18,0.53-3.51,0.53h-8.23v-14.86h8.2
				c2.74,0,4.77,0.67,6.1,2.01c1.32,1.34,1.99,3.17,1.99,5.5C214.69,292.14,214.51,293.14,214.17,294.04z"/>
			<path class="st0" d="M227.88,275.25v8.26h14.96v41.25h10.2v-41.25h15.16v-8.26H227.88z"/>
			<path class="st0" d="M412.31,289.26c-1.11-2.9-2.66-5.39-4.65-7.47c-1.98-2.07-4.36-3.68-7.14-4.82
				c-2.78-1.15-5.83-1.72-9.16-1.72h-15.23v49.51h15.13c3.35,0,6.42-0.57,9.21-1.7c2.79-1.13,5.18-2.73,7.19-4.81
				c2.01-2.07,3.56-4.56,4.66-7.45c1.1-2.89,1.65-6.1,1.65-9.64v-2.24C413.97,295.38,413.41,292.16,412.31,289.26z M403.64,301.16
				c0,4.95-1.06,8.75-3.17,11.41s-5.18,3.99-9.21,3.99h-4.93v-33.05h5.03c4.01,0,7.06,1.3,9.15,3.9c2.08,2.6,3.13,6.41,3.13,11.44
				V301.16z"/>
			<path class="st0" d="M431.58,316.56V303.3h19.59v-7.99h-19.59v-11.8h22.92v-8.26h-33.12v49.51h33.19v-8.2H431.58z"/>
			<path class="st0" d="M490.07,275.25l-11.22,37.23l-11.15-37.23h-11.32l17.17,49.51h10.65l17.24-49.51H490.07z"/>
		</g>
		<g>
			<path class="st2" d="M319.82,275.25l19.89,32.64v-54.23l-52.4,17.03c-4.22,1.38-7.08,5.31-7.08,9.75v39.43
				c0,4.46,2.88,8.41,7.12,9.76l22.26,7.13v-61.5H319.82z M300.17,324.76h-10.2v-49.51h10.2V324.76z"/>
			<path class="st0" d="M351.83,249.72l-1.96,0.64v74.4h-10.2l-19.86-32.58v47.84l32.06,10.27c6.61,2.12,13.37-2.81,13.37-9.76
				v-81.07C365.25,252.51,358.46,247.57,351.83,249.72z"/>
		</g>
	</g>
</g>
</svg>
