<?xml version="1.0" encoding="utf-8"?>
<!-- Generator: Adobe Illustrator 24.2.1, SVG Export Plug-In . SVG Version: 6.00 Build 0)  -->
<svg version="1.1" id="Layer_1" xmlns="http://www.w3.org/2000/svg" xmlns:xlink="http://www.w3.org/1999/xlink" x="0px" y="0px"
	 viewBox="0 0 800 600" style="enable-background:new 0 0 800 600;" xml:space="preserve">
<style type="text/css">
	.st0{fill:#105740;}
	.st1{fill:#F2A541;}
</style>
<g>
	<g>
		<path class="st0" d="M336.51,416.98h-11.72v-6.34c10.67,0,19.7,0,30.41,0v6.34h-11.72v30.63h-6.97V416.98z"/>
		<path class="st0" d="M389.64,447.6h-27.67c0-12.3,0-24.66,0-36.96h27.67v6.76h-20.75v8.5h20.01v6.49h-20.01v8.34h20.75V447.6z"/>
		<path class="st0" d="M430.24,442.96c-3.8,3.75-8.71,5.49-14.05,5.49c-13.73,0-19.54-9.45-19.59-19.06
			c-0.05-9.66,6.23-19.48,19.59-19.48c5.02,0,9.77,1.9,13.57,5.65l-4.65,4.49c-2.43-2.38-5.7-3.49-8.92-3.49
			c-8.92,0-12.78,6.65-12.73,12.83c0.05,6.13,3.59,12.51,12.73,12.51c3.22,0,6.86-1.32,9.29-3.75L430.24,442.96z"/>
		<path class="st0" d="M461.98,447.65v-14.94h-18.16v14.94h-6.97v-36.96h6.97v15.58h18.16v-15.58h6.92v36.96H461.98z"/>
	</g>
	<g>
		<path class="st1" d="M392.88,214.96l48.44,79.48V162.39l-127.57,41.46c-10.27,3.35-17.23,12.93-17.23,23.74v95.99
			c0,10.86,7.01,20.47,17.33,23.77l54.2,17.36V214.96H392.88z M345.03,335.5h-24.84V214.96h24.84V335.5z"/>
		<path class="st0" d="M470.83,152.8l-4.76,1.55V335.5h-24.84l-48.35-79.32v116.48l78.05,25c16.1,5.17,32.56-6.84,32.56-23.75
			V176.52C503.49,159.57,486.96,147.55,470.83,152.8z"/>
	</g>
</g>
</svg>
