<?xml version="1.0" encoding="utf-8"?>
<!-- Generator: Adobe Illustrator 24.2.1, SVG Export Plug-In . SVG Version: 6.00 Build 0)  -->
<svg version="1.1" id="Layer_1" xmlns="http://www.w3.org/2000/svg" xmlns:xlink="http://www.w3.org/1999/xlink" x="0px" y="0px"
	 viewBox="0 0 800 600" style="enable-background:new 0 0 800 600;" xml:space="preserve">
<style type="text/css">
	.st0{fill:#105740;}
	.st1{fill:#FFFFFF;}
	.st2{fill:#F2A541;}
</style>
<rect class="st0" width="800" height="600"/>
<g>
	<g>
		<path class="st1" d="M326.14,436.09H312.5v-7.37c12.41,0,22.91,0,35.39,0v7.37h-13.64v35.63h-8.11V436.09z"/>
		<path class="st1" d="M387.94,471.72h-32.19c0-14.31,0-28.69,0-43h32.19v7.86H363.8v9.89h23.28v7.56H363.8v9.71h24.14V471.72z"/>
		<path class="st1" d="M435.19,466.32c-4.42,4.36-10.14,6.39-16.34,6.39c-15.97,0-22.73-11-22.79-22.18
			c-0.06-11.24,7.25-22.67,22.79-22.67c5.84,0,11.36,2.21,15.79,6.57l-5.41,5.22c-2.83-2.76-6.64-4.05-10.38-4.05
			c-10.38,0-14.87,7.74-14.81,14.93c0.06,7.13,4.18,14.56,14.81,14.56c3.75,0,7.99-1.54,10.81-4.36L435.19,466.32z"/>
		<path class="st1" d="M472.11,471.79V454.4h-21.13v17.38h-8.11v-43h8.11v18.12h21.13v-18.12h8.05v43H472.11z"/>
	</g>
	<g>
		<path class="st2" d="M391.71,201.06l56.35,92.46V139.9l-148.42,48.23c-11.94,3.9-20.05,15.04-20.05,27.62v111.68
			c0,12.63,8.16,23.81,20.16,27.65l63.06,20.2V201.06H391.71z M336.05,341.3h-28.9V201.06h28.9V341.3z"/>
		<path class="st1" d="M482.4,128.74l-5.54,1.8V341.3h-28.9l-56.25-92.29v135.52l90.81,29.09c18.73,6.01,37.88-7.96,37.88-27.63
			V156.34C520.4,136.63,501.17,122.63,482.4,128.74z"/>
	</g>
</g>
</svg>
