<?xml version="1.0" encoding="utf-8"?>
<!-- Generator: Adobe Illustrator 24.2.1, SVG Export Plug-In . SVG Version: 6.00 Build 0)  -->
<svg version="1.1" id="Layer_1" xmlns="http://www.w3.org/2000/svg" xmlns:xlink="http://www.w3.org/1999/xlink" x="0px" y="0px"
	 viewBox="0 0 800 600" style="enable-background:new 0 0 800 600;" xml:space="preserve">
<style type="text/css">
	.st0{fill:#F2A541;}
	.st1{fill:#105740;}
</style>
<g>
	<g>
		<path class="st0" d="M560.84,350.02h-8.39v-4.54c7.63,0,14.1,0,21.77,0v4.54h-8.39v21.92h-4.99V350.02z"/>
		<path class="st0" d="M598.86,371.94h-19.8c0-8.81,0-17.65,0-26.45h19.8v4.84h-14.85v6.08h14.32v4.65h-14.32v5.97h14.85V371.94z"/>
		<path class="st0" d="M627.92,368.62c-2.72,2.68-6.24,3.93-10.05,3.93c-9.83,0-13.98-6.77-14.02-13.64
			c-0.04-6.92,4.46-13.94,14.02-13.94c3.59,0,6.99,1.36,9.71,4.04l-3.33,3.21c-1.74-1.7-4.08-2.49-6.39-2.49
			c-6.39,0-9.15,4.76-9.11,9.18c0.04,4.38,2.57,8.96,9.11,8.96c2.3,0,4.91-0.94,6.65-2.68L627.92,368.62z"/>
		<path class="st0" d="M650.64,371.98v-10.69h-13v10.69h-4.99v-26.45h4.99v11.15h13v-11.15h4.95v26.45H650.64z"/>
	</g>
	<g>
		<g>
			<path class="st1" d="M141.46,299.81c-1.88-1.78-4.24-3.37-7.06-4.76c-2.82-1.41-6.08-2.69-9.79-3.83
				c-4.42-1.31-7.77-2.72-10.07-4.23c-2.28-1.51-3.43-3.39-3.43-5.63c0-1.09,0.23-2.12,0.68-3.09c0.45-0.97,1.12-1.81,2.01-2.52
				c0.89-0.71,2.01-1.27,3.37-1.68c1.35-0.4,2.94-0.6,4.79-0.6c1.89,0,3.55,0.24,4.95,0.73c1.4,0.48,2.56,1.16,3.5,2.03
				c0.94,0.87,1.63,1.92,2.08,3.14c0.45,1.21,0.67,2.53,0.67,3.97h14.02c0-3.05-0.59-5.86-1.77-8.43c-1.19-2.57-2.87-4.79-5.05-6.65
				c-2.18-1.87-4.81-3.33-7.9-4.37c-3.08-1.04-6.51-1.57-10.28-1.57c-3.67,0-7.05,0.46-10.12,1.38c-3.07,0.92-5.72,2.21-7.94,3.85
				c-2.23,1.65-3.95,3.65-5.18,6c-1.23,2.35-1.85,4.94-1.85,7.78c0,2.95,0.6,5.55,1.8,7.75c1.2,2.21,2.83,4.17,4.9,5.86
				c2.07,1.7,4.48,3.17,7.25,4.42c2.75,1.25,5.69,2.37,8.81,3.37c2.73,0.87,4.97,1.7,6.7,2.48c1.73,0.77,3.08,1.57,4.06,2.38
				c0.98,0.81,1.64,1.69,1.99,2.64c0.34,0.96,0.51,2.02,0.51,3.2c0,1.09-0.2,2.11-0.62,3.06c-0.42,0.96-1.07,1.77-1.94,2.46
				c-0.88,0.68-1.98,1.22-3.32,1.61c-1.34,0.39-2.92,0.58-4.72,0.58c-2.03,0-3.86-0.2-5.51-0.6c-1.65-0.41-3.06-1.05-4.24-1.94
				c-1.17-0.89-2.07-2.05-2.72-3.48c-0.66-1.43-0.98-3.17-0.98-5.23H95c0,2.55,0.36,4.88,1.1,6.98c0.73,2.1,1.74,3.98,3.04,5.63
				c1.29,1.65,2.8,3.08,4.55,4.3c1.74,1.21,3.63,2.23,5.68,3.03c2.04,0.81,4.18,1.41,6.42,1.8c2.24,0.39,4.48,0.58,6.72,0.58
				c3.74,0,7.12-0.42,10.16-1.28c3.04-0.86,5.63-2.08,7.78-3.69c2.14-1.61,3.81-3.58,4.97-5.91c1.17-2.34,1.75-5,1.75-7.99
				c0-2.8-0.48-5.31-1.44-7.51C144.77,303.58,143.35,301.59,141.46,299.81z"/>
			<path class="st1" d="M152.47,263.23v11.35h20.56v56.67h14.02v-56.67h20.83v-11.35H152.47z"/>
			<path class="st1" d="M242.82,263.23h-12.98l-25.33,68.02h14.9l4.68-14.02h24.57l4.72,14.02h14.9L242.82,263.23z M227.87,305.88
				l8.45-25.46l8.55,25.46H227.87z"/>
			<path class="st1" d="M312.89,302.81c1.87-0.84,3.55-1.84,5.05-2.99c1.49-1.16,2.77-2.5,3.83-4.04c1.05-1.54,1.86-3.3,2.43-5.28
				c0.55-1.98,0.84-4.21,0.84-6.7c0-3.37-0.58-6.32-1.73-8.88c-1.16-2.55-2.8-4.69-4.95-6.42c-2.15-1.73-4.78-3.04-7.9-3.93
				c-3.12-0.89-6.64-1.33-10.55-1.33h-25.28v68.02h14.02v-24.91h11.17l12.75,24.91h15.04v-0.66L312.89,302.81z M310.32,289.05
				c-0.46,1.22-1.16,2.28-2.07,3.17c-0.92,0.89-2.07,1.57-3.46,2.06c-1.39,0.48-2.99,0.73-4.83,0.73h-11.31v-20.42h11.26
				c3.77,0,6.56,0.92,8.38,2.76c1.82,1.84,2.73,4.36,2.73,7.56C311.03,286.44,310.79,287.81,310.32,289.05z"/>
			<path class="st1" d="M329.16,263.23v11.35h20.56v56.67h14.02v-56.67h20.83v-11.35H329.16z"/>
			<path class="st1" d="M582.56,282.48c-1.53-3.99-3.65-7.4-6.39-10.26c-2.72-2.85-5.99-5.06-9.81-6.63
				c-3.81-1.58-8.01-2.36-12.59-2.36h-20.93v68.02h20.79c4.61,0,8.82-0.78,12.66-2.34c3.83-1.55,7.12-3.76,9.88-6.61
				c2.76-2.85,4.89-6.26,6.41-10.23c1.51-3.98,2.27-8.38,2.27-13.25v-3.08C584.84,290.89,584.08,286.47,582.56,282.48z
				 M570.65,298.83c0,6.8-1.45,12.02-4.35,15.68c-2.9,3.66-7.11,5.49-12.66,5.49h-6.78v-45.41h6.91c5.52,0,9.7,1.79,12.57,5.35
				c2.86,3.57,4.3,8.81,4.3,15.72V298.83z"/>
			<path class="st1" d="M609.04,320v-18.22h26.91V290.8h-26.91v-16.21h31.49v-11.35h-45.51v68.02h45.6V320H609.04z"/>
			<path class="st1" d="M689.4,263.23l-15.41,51.16l-15.33-51.16h-15.55l23.59,68.02h14.63L705,263.23H689.4z"/>
		</g>
		<g>
			<path class="st0" d="M455.48,263.23l27.33,44.85v-74.51l-71.99,23.39c-5.79,1.89-9.72,7.29-9.72,13.39v54.17
				c0,6.13,3.96,11.55,9.78,13.41l30.58,9.8v-84.5H455.48z M428.48,331.26h-14.02v-68.02h14.02V331.26z"/>
			<path class="st1" d="M499.47,228.16l-2.69,0.87v102.23h-14.02l-27.29-44.76v65.73l44.05,14.11c9.08,2.92,18.38-3.86,18.38-13.4
				V241.54C517.9,231.98,508.57,225.19,499.47,228.16z"/>
		</g>
	</g>
</g>
</svg>
