<?xml version="1.0" encoding="utf-8"?>
<!-- Generator: Adobe Illustrator 24.2.1, SVG Export Plug-In . SVG Version: 6.00 Build 0)  -->
<svg version="1.1" id="Layer_1" xmlns="http://www.w3.org/2000/svg" xmlns:xlink="http://www.w3.org/1999/xlink" x="0px" y="0px"
	 viewBox="0 0 800 600" style="enable-background:new 0 0 800 600;" xml:space="preserve">
<style type="text/css">
	.st0{fill:#105740;}
	.st1{fill:#F2A541;}
	.st2{fill:#FFFFFF;}
</style>
<rect class="st0" width="800" height="600"/>
<g>
	<g>
		<path class="st1" d="M565.28,351.4h-8.62v-4.66c7.84,0,14.49,0,22.37,0v4.66h-8.62v22.52h-5.13V351.4z"/>
		<path class="st1" d="M604.35,373.93H584c0-9.05,0-18.14,0-27.19h20.35v4.97h-15.26v6.25h14.72v4.78h-14.72v6.14h15.26V373.93z"/>
		<path class="st1" d="M634.22,370.51c-2.8,2.76-6.41,4.04-10.33,4.04c-10.1,0-14.37-6.95-14.41-14.02
			c-0.04-7.11,4.58-14.33,14.41-14.33c3.69,0,7.18,1.4,9.98,4.16l-3.42,3.3c-1.79-1.75-4.19-2.56-6.56-2.56
			c-6.56,0-9.4,4.89-9.36,9.44c0.04,4.51,2.64,9.2,9.36,9.2c2.37,0,5.05-0.97,6.83-2.76L634.22,370.51z"/>
		<path class="st1" d="M657.56,373.97v-10.99H644.2v10.99h-5.13v-27.18h5.13v11.46h13.36v-11.46h5.09v27.18H657.56z"/>
	</g>
	<g>
		<g>
			<path class="st2" d="M134.32,299.81c-1.94-1.83-4.35-3.46-7.25-4.89c-2.9-1.44-6.25-2.76-10.06-3.94
				c-4.54-1.35-7.99-2.79-10.35-4.34c-2.35-1.55-3.53-3.49-3.53-5.79c0-1.12,0.24-2.18,0.7-3.17c0.46-0.99,1.15-1.86,2.06-2.59
				c0.91-0.73,2.06-1.31,3.46-1.73c1.39-0.41,3.03-0.62,4.92-0.62c1.95,0,3.64,0.25,5.09,0.75c1.43,0.49,2.63,1.19,3.6,2.08
				c0.96,0.89,1.67,1.97,2.14,3.22c0.46,1.25,0.69,2.6,0.69,4.08h14.4c0-3.13-0.61-6.02-1.82-8.67c-1.22-2.64-2.95-4.92-5.19-6.84
				c-2.24-1.93-4.94-3.42-8.12-4.49c-3.16-1.07-6.69-1.61-10.56-1.61c-3.77,0-7.24,0.47-10.39,1.41c-3.15,0.94-5.88,2.27-8.16,3.96
				c-2.29,1.7-4.06,3.75-5.32,6.17c-1.27,2.42-1.9,5.08-1.9,8c0,3.04,0.62,5.7,1.85,7.97s2.91,4.28,5.04,6.02
				c2.13,1.75,4.61,3.26,7.45,4.54c2.83,1.29,5.85,2.44,9.05,3.46c2.81,0.89,5.11,1.75,6.89,2.54c1.78,0.8,3.16,1.61,4.18,2.45
				c1.01,0.84,1.69,1.74,2.04,2.71c0.35,0.98,0.52,2.07,0.52,3.29c0,1.12-0.21,2.17-0.64,3.14c-0.43,0.98-1.1,1.82-1.99,2.52
				c-0.9,0.7-2.03,1.26-3.41,1.65c-1.38,0.4-3,0.6-4.85,0.6c-2.08,0-3.97-0.21-5.66-0.62c-1.7-0.42-3.14-1.08-4.35-1.99
				c-1.2-0.91-2.13-2.1-2.8-3.58c-0.68-1.47-1.01-3.26-1.01-5.37H86.57c0,2.62,0.37,5.01,1.13,7.17c0.75,2.16,1.79,4.09,3.12,5.79
				c1.33,1.7,2.88,3.16,4.68,4.42c1.79,1.25,3.73,2.29,5.84,3.11c2.09,0.84,4.29,1.45,6.6,1.85c2.3,0.4,4.61,0.6,6.91,0.6
				c3.84,0,7.32-0.43,10.44-1.32c3.12-0.88,5.79-2.14,8-3.79c2.2-1.65,3.91-3.67,5.11-6.07c1.2-2.41,1.8-5.14,1.8-8.21
				c0-2.88-0.49-5.45-1.48-7.72C137.72,303.68,136.26,301.64,134.32,299.81z"/>
			<path class="st2" d="M145.63,262.22v11.66h21.12v58.24h14.4v-58.24h21.41v-11.66H145.63z"/>
			<path class="st2" d="M238.47,262.22h-13.34l-26.03,69.9h15.32l4.8-14.4h25.25l4.85,14.4h15.31L238.47,262.22z M223.12,306.05
				l8.68-26.16l8.78,26.16H223.12z"/>
			<path class="st2" d="M310.49,302.88c1.93-0.86,3.64-1.89,5.19-3.08c1.53-1.19,2.85-2.56,3.94-4.16c1.08-1.58,1.92-3.39,2.5-5.42
				c0.57-2.03,0.86-4.32,0.86-6.89c0-3.46-0.6-6.49-1.78-9.13c-1.19-2.62-2.88-4.82-5.09-6.59c-2.21-1.78-4.91-3.12-8.12-4.04
				c-3.2-0.91-6.82-1.37-10.85-1.37h-25.98v69.9h14.4v-25.59h11.48l13.11,25.59h15.45v-0.68L310.49,302.88z M307.84,288.75
				c-0.47,1.26-1.19,2.35-2.13,3.26c-0.94,0.91-2.13,1.61-3.56,2.11c-1.42,0.49-3.08,0.75-4.96,0.75h-11.62v-20.99h11.57
				c3.87,0,6.74,0.94,8.62,2.84c1.87,1.89,2.81,4.48,2.81,7.77C308.57,286.06,308.33,287.48,307.84,288.75z"/>
			<path class="st2" d="M327.2,262.22v11.66h21.12v58.24h14.4v-58.24h21.41v-11.66H327.2z"/>
			<path class="st2" d="M587.6,282c-1.57-4.1-3.75-7.6-6.56-10.54c-2.8-2.93-6.16-5.2-10.08-6.81c-3.92-1.62-8.23-2.43-12.94-2.43
				h-21.51v69.9h21.37c4.74,0,9.07-0.81,13.01-2.41c3.94-1.59,7.32-3.86,10.15-6.79c2.84-2.93,5.03-6.44,6.58-10.51
				c1.55-4.09,2.33-8.62,2.33-13.62v-3.16C589.95,290.64,589.16,286.09,587.6,282z M575.36,298.8c0,6.99-1.49,12.35-4.47,16.11
				s-7.31,5.64-13.01,5.64h-6.97v-46.67h7.1c5.67,0,9.97,1.84,12.92,5.5c2.94,3.66,4.42,9.05,4.42,16.15V298.8z"/>
			<path class="st2" d="M614.82,320.55v-18.73h27.66v-11.28h-27.66v-16.66h32.36v-11.66h-46.77v69.9h46.86v-11.57H614.82z"/>
			<path class="st2" d="M697.39,262.22l-15.84,52.57l-15.75-52.57h-15.98l24.24,69.9h15.03l24.34-69.9H697.39z"/>
		</g>
		<g>
			<path class="st1" d="M457.01,262.22l28.09,46.09v-76.57l-73.98,24.04c-5.95,1.95-9.99,7.5-9.99,13.76v55.67
				c0,6.3,4.07,11.87,10.05,13.78l31.43,10.07v-86.84H457.01z M429.27,332.12h-14.4v-69.9h14.4V332.12z"/>
			<path class="st2" d="M502.22,226.17l-2.76,0.9v105.05h-14.4l-28.04-46v67.55l45.26,14.5c9.33,3,18.88-3.97,18.88-13.77V239.93
				C521.16,230.1,511.57,223.13,502.22,226.17z"/>
		</g>
	</g>
</g>
</svg>
