<?xml version="1.0" encoding="utf-8"?>
<!-- Generator: Adobe Illustrator 24.2.1, SVG Export Plug-In . SVG Version: 6.00 Build 0)  -->
<svg version="1.1" id="Layer_1" xmlns="http://www.w3.org/2000/svg" xmlns:xlink="http://www.w3.org/1999/xlink" x="0px" y="0px"
	 viewBox="0 0 800 600" style="enable-background:new 0 0 800 600;" xml:space="preserve">
<style type="text/css">
	.st0{fill:#FFFFFF;}
	.st1{fill:#F2A541;}
</style>
<g>
	<g>
		<path class="st0" d="M133.79,302.65c-1.94-1.83-4.36-3.47-7.27-4.9c-2.9-1.45-6.26-2.77-10.08-3.95c-4.55-1.35-8-2.8-10.37-4.35
			c-2.35-1.56-3.53-3.49-3.53-5.8c0-1.12,0.24-2.19,0.7-3.18c0.46-0.99,1.15-1.86,2.07-2.6c0.92-0.73,2.07-1.31,3.47-1.73
			c1.39-0.41,3.03-0.62,4.93-0.62c1.95,0,3.65,0.25,5.1,0.75c1.44,0.49,2.64,1.19,3.6,2.09c0.96,0.9,1.67,1.98,2.15,3.23
			c0.46,1.25,0.69,2.61,0.69,4.09h14.43c0-3.14-0.61-6.03-1.82-8.68c-1.22-2.65-2.95-4.93-5.2-6.85c-2.24-1.93-4.95-3.43-8.13-4.5
			c-3.17-1.07-6.7-1.61-10.58-1.61c-3.78,0-7.26,0.47-10.42,1.42c-3.16,0.95-5.89,2.27-8.18,3.97c-2.29,1.7-4.07,3.76-5.34,6.18
			c-1.27,2.42-1.9,5.09-1.9,8.01c0,3.04,0.62,5.71,1.85,7.98s2.91,4.29,5.05,6.03c2.14,1.75,4.62,3.27,7.46,4.55
			c2.84,1.29,5.86,2.44,9.07,3.47c2.82,0.9,5.12,1.75,6.9,2.55c1.78,0.8,3.17,1.61,4.18,2.45c1.01,0.84,1.69,1.74,2.05,2.72
			c0.35,0.98,0.52,2.08,0.52,3.3c0,1.12-0.21,2.18-0.64,3.15c-0.43,0.98-1.1,1.82-2,2.53c-0.91,0.7-2.04,1.26-3.42,1.65
			c-1.38,0.4-3,0.6-4.86,0.6c-2.09,0-3.98-0.21-5.67-0.62c-1.7-0.42-3.15-1.08-4.36-2c-1.2-0.92-2.14-2.11-2.81-3.58
			c-0.68-1.48-1.01-3.27-1.01-5.38H85.95c0,2.63,0.37,5.02,1.13,7.19c0.75,2.17,1.79,4.1,3.13,5.8c1.33,1.7,2.88,3.17,4.69,4.43
			c1.79,1.25,3.74,2.29,5.85,3.12c2.1,0.84,4.3,1.46,6.62,1.85c2.3,0.4,4.62,0.6,6.92,0.6c3.85,0,7.33-0.43,10.46-1.32
			c3.13-0.89,5.8-2.15,8.01-3.8c2.21-1.65,3.92-3.68,5.12-6.08c1.2-2.41,1.8-5.15,1.8-8.23c0-2.88-0.49-5.46-1.49-7.74
			C137.2,306.53,135.73,304.48,133.79,302.65z"/>
		<path class="st0" d="M145.12,264.99v11.69h21.17v58.36h14.43v-58.36h21.45v-11.69H145.12z"/>
		<path class="st0" d="M238.15,264.99h-13.37l-26.08,70.04h15.35l4.81-14.43h25.3l4.86,14.43h15.34L238.15,264.99z M222.76,308.9
			l8.7-26.22l8.8,26.22H222.76z"/>
		<path class="st0" d="M310.31,305.73c1.93-0.87,3.65-1.89,5.2-3.08c1.54-1.19,2.85-2.57,3.95-4.16c1.08-1.58,1.92-3.4,2.5-5.43
			c0.57-2.04,0.87-4.33,0.87-6.9c0-3.47-0.6-6.51-1.78-9.15c-1.19-2.63-2.88-4.83-5.1-6.61c-2.21-1.78-4.92-3.13-8.13-4.05
			c-3.21-0.92-6.83-1.37-10.87-1.37h-26.03v70.04h14.43v-25.64h11.5l13.13,25.64h15.49v-0.68L310.31,305.73z M307.66,291.57
			c-0.47,1.26-1.19,2.35-2.14,3.27c-0.95,0.92-2.14,1.61-3.56,2.12c-1.43,0.49-3.08,0.75-4.97,0.75h-11.65v-21.03h11.6
			c3.88,0,6.75,0.95,8.63,2.85c1.87,1.89,2.82,4.49,2.82,7.79C308.39,288.88,308.14,290.3,307.66,291.57z"/>
		<path class="st0" d="M327.05,264.99v11.69h21.17v58.36h14.43v-58.36h21.45v-11.69H327.05z"/>
		<path class="st0" d="M587.98,284.81c-1.58-4.11-3.76-7.62-6.58-10.56c-2.81-2.93-6.17-5.21-10.1-6.82
			c-3.93-1.62-8.25-2.43-12.97-2.43h-21.55v70.04h21.41c4.74,0,9.09-0.81,13.03-2.41c3.95-1.59,7.33-3.87,10.17-6.8
			c2.85-2.93,5.04-6.45,6.6-10.53c1.56-4.1,2.33-8.63,2.33-13.64v-3.17C590.33,293.47,589.54,288.91,587.98,284.81z M575.71,301.64
			c0,7-1.5,12.37-4.48,16.14c-2.98,3.77-7.32,5.65-13.03,5.65h-6.98v-46.76h7.12c5.68,0,9.99,1.84,12.95,5.51
			c2.94,3.67,4.43,9.07,4.43,16.18V301.64z"/>
		<path class="st0" d="M615.25,323.43v-18.76h27.71v-11.3h-27.71v-16.7h32.43v-11.69h-46.86v70.04h46.96v-11.6H615.25z"/>
		<path class="st0" d="M697.99,264.99l-15.87,52.68l-15.78-52.68h-16.02l24.29,70.04h15.06l24.38-70.04H697.99z"/>
	</g>
	<g>
		<path class="st1" d="M457.13,264.99l28.14,46.18v-76.73l-74.13,24.09c-5.97,1.95-10.01,7.51-10.01,13.79v55.78
			c0,6.31,4.08,11.89,10.07,13.81L442.69,352v-87.01H457.13z M429.33,335.03h-14.43v-70.04h14.43V335.03z"/>
		<path class="st0" d="M502.42,228.87l-2.77,0.9v105.26h-14.43l-28.1-46.09v67.68l45.35,14.53c9.35,3,18.92-3.98,18.92-13.8v-114.7
			C521.4,232.81,511.79,225.82,502.42,228.87z"/>
	</g>
</g>
</svg>
