<?xml version="1.0" encoding="utf-8"?>
<!-- Generator: Adobe Illustrator 24.2.1, SVG Export Plug-In . SVG Version: 6.00 Build 0)  -->
<svg version="1.1" id="Layer_1" xmlns="http://www.w3.org/2000/svg" xmlns:xlink="http://www.w3.org/1999/xlink" x="0px" y="0px"
	 viewBox="0 0 800 600" style="enable-background:new 0 0 800 600;" xml:space="preserve">
<style type="text/css">
	.st0{fill:#105740;}
	.st1{fill:#FFFFFF;}
	.st2{fill:#F2A541;}
</style>
<rect class="st0" width="800" height="600"/>
<g>
	<g>
		<path class="st1" d="M126.53,302.73c-1.99-1.88-4.48-3.56-7.46-5.04c-2.98-1.49-6.43-2.84-10.36-4.06
			c-4.67-1.39-8.22-2.87-10.65-4.47c-2.42-1.6-3.63-3.59-3.63-5.96c0-1.15,0.24-2.25,0.72-3.27c0.48-1.02,1.18-1.91,2.12-2.67
			c0.94-0.75,2.12-1.35,3.56-1.78c1.43-0.42,3.11-0.64,5.07-0.64c2,0,3.75,0.25,5.24,0.77c1.48,0.51,2.71,1.22,3.7,2.14
			c0.99,0.92,1.72,2.03,2.2,3.32c0.48,1.28,0.71,2.68,0.71,4.2h14.83c0-3.23-0.63-6.2-1.87-8.92c-1.25-2.72-3.03-5.07-5.34-7.04
			c-2.31-1.98-5.09-3.52-8.35-4.62c-3.26-1.1-6.89-1.66-10.87-1.66c-3.88,0-7.45,0.49-10.7,1.46c-3.25,0.97-6.05,2.34-8.4,4.08
			c-2.36,1.75-4.18,3.86-5.48,6.35c-1.3,2.49-1.95,5.23-1.95,8.23c0,3.12,0.64,5.87,1.9,8.2c1.26,2.34,2.99,4.41,5.19,6.2
			c2.19,1.8,4.74,3.36,7.67,4.67c2.91,1.32,6.02,2.51,9.31,3.56c2.89,0.92,5.26,1.8,7.09,2.62c1.83,0.82,3.26,1.66,4.3,2.52
			c1.04,0.86,1.74,1.79,2.1,2.79c0.36,1.01,0.54,2.13,0.54,3.39c0,1.15-0.21,2.23-0.66,3.24c-0.44,1.01-1.13,1.87-2.05,2.6
			c-0.93,0.72-2.09,1.29-3.51,1.7c-1.42,0.41-3.08,0.62-5,0.62c-2.14,0-4.09-0.21-5.82-0.64c-1.75-0.43-3.24-1.11-4.48-2.05
			c-1.23-0.94-2.19-2.16-2.88-3.68c-0.7-1.52-1.04-3.36-1.04-5.53H77.38c0,2.7,0.38,5.16,1.16,7.38c0.77,2.22,1.84,4.21,3.22,5.96
			c1.37,1.75,2.96,3.26,4.81,4.55c1.84,1.28,3.84,2.36,6.01,3.21c2.15,0.86,4.42,1.5,6.8,1.9c2.37,0.41,4.74,0.62,7.11,0.62
			c3.95,0,7.53-0.44,10.75-1.36c3.22-0.91,5.96-2.2,8.23-3.9c2.27-1.7,4.02-3.78,5.26-6.25c1.23-2.48,1.85-5.29,1.85-8.45
			c0-2.96-0.51-5.61-1.53-7.95C130.03,306.71,128.52,304.61,126.53,302.73z"/>
		<path class="st1" d="M138.17,264.03v12h21.74v59.95h14.83v-59.95h22.04v-12H138.17z"/>
		<path class="st1" d="M233.74,264.03H220l-26.79,71.95h15.77l4.95-14.83h25.99l5,14.83h15.76L233.74,264.03z M217.93,309.15
			l8.94-26.93l9.04,26.93H217.93z"/>
		<path class="st1" d="M307.86,305.89c1.98-0.89,3.75-1.94,5.34-3.17c1.58-1.22,2.93-2.64,4.06-4.28c1.11-1.63,1.97-3.49,2.57-5.58
			c0.59-2.09,0.89-4.45,0.89-7.09c0-3.56-0.62-6.68-1.83-9.39c-1.22-2.7-2.96-4.97-5.24-6.79c-2.28-1.83-5.06-3.22-8.35-4.16
			c-3.3-0.94-7.02-1.41-11.16-1.41h-26.74v71.95h14.83v-26.34h11.81l13.49,26.34h15.91v-0.7L307.86,305.89z M305.14,291.34
			c-0.49,1.29-1.22,2.42-2.19,3.36c-0.97,0.94-2.19,1.66-3.66,2.17c-1.47,0.51-3.17,0.77-5.11,0.77h-11.96v-21.6h11.91
			c3.98,0,6.94,0.97,8.87,2.92c1.92,1.94,2.89,4.61,2.89,8C305.89,288.58,305.64,290.03,305.14,291.34z"/>
		<path class="st1" d="M325.06,264.03v12h21.74v59.95h14.83v-59.95h22.04v-12H325.06z"/>
		<path class="st1" d="M593.1,284.39c-1.62-4.22-3.86-7.83-6.76-10.85c-2.88-3.01-6.34-5.35-10.38-7.01
			c-4.03-1.67-8.47-2.5-13.32-2.5h-22.14v71.95h22c4.87,0,9.33-0.83,13.39-2.48c4.06-1.64,7.53-3.97,10.45-6.99
			c2.92-3.01,5.18-6.62,6.78-10.82c1.6-4.21,2.4-8.87,2.4-14.02v-3.26C595.52,293.29,594.71,288.61,593.1,284.39z M580.5,301.68
			c0,7.19-1.54,12.71-4.6,16.58c-3.06,3.87-7.52,5.8-13.39,5.8h-7.17v-48.04h7.31c5.84,0,10.26,1.89,13.3,5.66
			c3.02,3.77,4.55,9.31,4.55,16.63V301.68z"/>
		<path class="st1" d="M621.12,324.07V304.8h28.47v-11.61h-28.47v-17.15h33.31v-12h-48.14v71.95h48.24v-11.91H621.12z"/>
		<path class="st1" d="M706.11,264.03l-16.3,54.11l-16.21-54.11h-16.45l24.95,71.95h15.47l25.05-71.95H706.11z"/>
	</g>
	<g>
		<path class="st2" d="M458.68,264.03l28.91,47.44v-78.82l-76.15,24.75c-6.13,2-10.28,7.72-10.28,14.17v57.3
			c0,6.48,4.19,12.22,10.35,14.19l32.35,10.36v-89.38H458.68z M430.13,335.99H415.3v-71.95h14.83V335.99z"/>
		<path class="st1" d="M505.21,226.93l-2.84,0.92v108.13h-14.83l-28.86-47.35v69.53l46.59,14.92c9.61,3.08,19.44-4.09,19.44-14.18
			V241.09C524.71,230.98,514.84,223.8,505.21,226.93z"/>
	</g>
</g>
</svg>
