<?xml version="1.0" encoding="utf-8"?>
<!-- Generator: Adobe Illustrator 24.2.1, SVG Export Plug-In . SVG Version: 6.00 Build 0)  -->
<svg version="1.1" id="Layer_1" xmlns="http://www.w3.org/2000/svg" xmlns:xlink="http://www.w3.org/1999/xlink" x="0px" y="0px"
	 viewBox="0 0 800 600" style="enable-background:new 0 0 800 600;" xml:space="preserve">
<style type="text/css">
	.st0{fill:#105740;}
	.st1{fill:#F2A541;}
</style>
<g>
	<g>
		<path class="st0" d="M112.25,302.87c-2.1-1.98-4.71-3.75-7.85-5.3c-3.14-1.56-6.77-2.99-10.9-4.27c-4.92-1.46-8.65-3.02-11.2-4.7
			c-2.54-1.68-3.82-3.78-3.82-6.27c0-1.21,0.26-2.36,0.76-3.44c0.5-1.07,1.25-2.01,2.23-2.81c0.99-0.79,2.23-1.42,3.75-1.87
			c1.5-0.45,3.28-0.67,5.33-0.67c2.11,0,3.95,0.27,5.51,0.81c1.55,0.53,2.85,1.29,3.89,2.26c1.04,0.97,1.81,2.14,2.32,3.49
			c0.5,1.35,0.74,2.82,0.74,4.42h15.6c0-3.39-0.66-6.52-1.97-9.39c-1.32-2.86-3.19-5.33-5.62-7.41c-2.43-2.09-5.35-3.7-8.79-4.86
			c-3.43-1.16-7.25-1.75-11.44-1.75c-4.09,0-7.84,0.51-11.26,1.53c-3.42,1.02-6.36,2.46-8.84,4.29c-2.48,1.84-4.39,4.06-5.77,6.68
			c-1.37,2.62-2.05,5.5-2.05,8.66c0,3.29,0.67,6.17,2,8.63c1.33,2.46,3.15,4.64,5.46,6.52c2.31,1.89,4.99,3.53,8.07,4.92
			c3.06,1.39,6.33,2.64,9.8,3.75c3.04,0.97,5.53,1.89,7.46,2.76c1.93,0.86,3.43,1.75,4.52,2.65c1.1,0.9,1.83,1.88,2.21,2.94
			c0.38,1.06,0.56,2.25,0.56,3.56c0,1.21-0.22,2.35-0.69,3.41c-0.47,1.06-1.19,1.97-2.16,2.73c-0.98,0.76-2.2,1.36-3.69,1.79
			c-1.49,0.44-3.25,0.65-5.26,0.65c-2.26,0-4.3-0.22-6.13-0.67c-1.84-0.46-3.41-1.17-4.71-2.16c-1.3-0.99-2.31-2.28-3.03-3.87
			c-0.73-1.6-1.1-3.53-1.1-5.82H60.53c0,2.84,0.4,5.43,1.22,7.77c0.81,2.34,1.94,4.43,3.38,6.27c1.44,1.84,3.12,3.43,5.07,4.79
			c1.94,1.35,4.04,2.48,6.32,3.37c2.27,0.9,4.65,1.57,7.15,2c2.49,0.44,4.99,0.65,7.48,0.65c4.16,0,7.93-0.47,11.31-1.43
			c3.38-0.96,6.27-2.32,8.66-4.11c2.38-1.79,4.24-3.98,5.53-6.58c1.3-2.61,1.95-5.57,1.95-8.9c0-3.12-0.53-5.91-1.61-8.36
			C115.93,307.06,114.34,304.85,112.25,302.87z"/>
		<path class="st0" d="M124.49,262.16v12.63h22.88v63.08h15.6v-63.08h23.19v-12.63H124.49z"/>
		<path class="st0" d="M225.05,262.16H210.6l-28.19,75.71H199l5.2-15.6h27.35l5.26,15.6h16.58L225.05,262.16z M208.42,309.62
			l9.41-28.34l9.51,28.34H208.42z"/>
		<path class="st0" d="M303.05,306.2c2.09-0.94,3.95-2.04,5.62-3.33c1.66-1.29,3.09-2.78,4.27-4.5c1.17-1.71,2.08-3.67,2.7-5.87
			c0.62-2.2,0.94-4.68,0.94-7.46c0-3.75-0.65-7.03-1.93-9.89c-1.29-2.84-3.12-5.22-5.51-7.14c-2.39-1.93-5.32-3.38-8.79-4.37
			c-3.47-0.99-7.38-1.48-11.75-1.48h-28.13v75.71h15.6v-27.72h12.43l14.2,27.72h16.74v-0.73L303.05,306.2z M300.19,290.89
			c-0.51,1.36-1.29,2.54-2.31,3.53c-1.02,0.99-2.31,1.75-3.85,2.29c-1.54,0.53-3.33,0.81-5.37,0.81h-12.59v-22.73h12.54
			c4.19,0,7.3,1.02,9.33,3.08c2.02,2.04,3.04,4.85,3.04,8.42C300.98,287.98,300.71,289.51,300.19,290.89z"/>
		<path class="st0" d="M321.15,262.16v12.63h22.88v63.08h15.6v-63.08h23.19v-12.63H321.15z"/>
		<path class="st0" d="M603.19,283.58c-1.7-4.44-4.06-8.24-7.11-11.42c-3.03-3.17-6.67-5.63-10.92-7.37
			c-4.25-1.76-8.92-2.63-14.01-2.63h-23.29v75.71H571c5.13,0,9.82-0.87,14.09-2.61c4.27-1.72,7.93-4.18,10.99-7.35
			c3.08-3.17,5.45-6.97,7.13-11.39c1.68-4.43,2.52-9.33,2.52-14.75v-3.43C605.73,292.94,604.88,288.01,603.19,283.58z
			 M589.93,301.77c0,7.57-1.62,13.38-4.84,17.45c-3.22,4.08-7.92,6.11-14.09,6.11h-7.54v-50.54h7.69c6.14,0,10.8,1.99,13.99,5.96
			c3.18,3.97,4.79,9.8,4.79,17.49V301.77z"/>
		<path class="st0" d="M632.66,325.33v-20.28h29.95v-12.22h-29.95v-18.05h35.05v-12.63h-50.65v75.71h50.76v-12.54H632.66z"/>
		<path class="st0" d="M722.1,262.16l-17.15,56.94l-17.06-56.94h-17.31l26.25,75.71h16.28l26.36-75.71H722.1z"/>
	</g>
	<g>
		<path class="st1" d="M461.75,262.16l30.42,49.92v-82.93l-80.13,26.04c-6.45,2.11-10.82,8.12-10.82,14.91v60.29
			c0,6.82,4.41,12.85,10.89,14.93l34.04,10.9v-94.05H461.75z M431.7,337.87h-15.6v-75.71h15.6V337.87z"/>
		<path class="st0" d="M510.71,223.11l-2.99,0.97v113.78h-15.6l-30.37-49.82v73.16l49.02,15.7c10.11,3.25,20.45-4.3,20.45-14.92
			V238.01C531.22,227.37,520.84,219.81,510.71,223.11z"/>
	</g>
</g>
</svg>
