<?xml version="1.0" encoding="utf-8"?>
<!-- Generator: Adobe Illustrator 24.2.1, SVG Export Plug-In . SVG Version: 6.00 Build 0)  -->
<svg version="1.1" id="Layer_1" xmlns="http://www.w3.org/2000/svg" xmlns:xlink="http://www.w3.org/1999/xlink" x="0px" y="0px"
	 viewBox="0 0 800 600" style="enable-background:new 0 0 800 600;" xml:space="preserve">
<style type="text/css">
	.st0{fill:#FFFFFF;}
	.st1{fill:#F1A643;}
	.st2{fill:#F2A541;}
</style>
<g>
	<g>
		<path class="st0" d="M519.91,285.83c3.27-6.4,9.84-10.95,16.98-11.76c7.29-1.12,15.59,0.42,20.81,5.97
			c2.48,2.44,3.83,5.73,4.88,8.99c-2.31,0.03-4.62,0.04-6.92-0.03c-1.26-4.75-5.32-8.42-10.12-9.35c-4.66-0.81-9.78-0.54-13.9,2
			c-4.74,2.78-7.61,8.02-8.4,13.35c-0.96,6.69-0.17,14.16,4.33,19.5c3.09,3.87,8.11,5.92,13.03,5.66
			c4.89,0.28,10.09-1.65,12.92-5.79c2.51-3.37,3.37-7.61,3.68-11.72c-4.75,0.01-9.51-0.07-14.27,0.07
			c-0.16-1.54-0.25-3.08-0.26-4.62c6.96-0.12,13.92-0.07,20.88-0.04c-0.15,8.9-0.04,17.81-0.04,26.71
			c-1.87,0.04-3.74,0.07-5.61,0.07c-0.22-2.71-0.35-5.43-0.46-8.15c-2.53,3.6-5.83,6.89-10.2,8.07c-7.26,1.94-15.62,0.86-21.55-3.98
			c-6.15-4.91-9.04-13.01-8.91-20.72C516.63,295.16,517.68,290.21,519.91,285.83z"/>
		<path class="st0" d="M734.46,287.1c-0.5,0.05-1.5,0.16-2.01,0.21c-0.04-2.79-0.01-5.6,0.03-8.39c-1.12,2.73-1.78,5.63-2.97,8.34
			c-2.84,0.92-2.49-2.77-3.29-4.45c-0.39-1.3-0.83-2.58-1.25-3.85v8.4c-0.1,0.05-0.19,0.08-0.26,0.11h-1.74v-7.87
			c0.01-1.06,0.01-2.12,0.01-3.18c1.04,0.01,2.08,0.01,3.14,0.02c0.87,2.79,1.65,5.61,2.58,8.38c0.88-2.79,1.8-5.58,2.69-8.37
			c1.04-0.02,2.09-0.03,3.15-0.05C734.43,279.96,734.65,283.53,734.46,287.1z"/>
		<path class="st0" d="M721.65,276.51v1.95h-3.12c-0.28,2.96-0.2,5.94-0.3,8.92c-0.75-0.08-1.49-0.16-2.23-0.22
			c0-2.9,0-5.79,0.01-8.68c-0.96-0.02-1.9-0.03-2.84-0.05c-0.02-0.49-0.05-1.46-0.07-1.96c2.63-0.03,5.25-0.09,7.89,0.03
			C721.21,276.49,721.44,276.5,721.65,276.51z"/>
		<path class="st0" d="M578.59,295.82c2.58-4.83,7.84-7.55,13.24-7.6c0.05,2.12,0.06,4.23,0.09,6.35c-3.88,0.04-8.3,0.64-10.88,3.87
			c-2.47,2.82-2.45,6.76-2.39,10.29c0.04,5.34-0.06,10.67,0.07,16.01c-2.03,0.12-4.06,0.11-6.08,0.1
			c-0.07-11.86-0.01-23.71-0.03-35.56c1.81-0.02,3.62-0.04,5.44-0.09C578.07,291.41,578.29,293.62,578.59,295.82z"/>
		<g>
			<path class="st0" d="M609.1,288.89c4.54-1.09,9.5-0.5,13.58,1.79c4.29,2.75,7.71,7.2,8.34,12.36c1.12,6.57-0.53,14.04-5.88,18.41
				c-7.23,6.5-19.99,5.45-25.65-2.62c-3.19-3.77-3.96-8.93-3.56-13.71C596.1,297.61,601.82,290.61,609.1,288.89z M609.99,294.1
				c-8.76,3.05-10.27,15.43-5.1,22.23c4.32,5.75,14.14,5.29,17.98-0.77c3.62-6.04,3.27-15.19-2.53-19.79
				C617.48,293.42,613.44,293.25,609.99,294.1z"/>
		</g>
		<g>
			<path class="st0" d="M686.72,294.96c2.4-2.84,5.41-5.56,9.21-6.2c5.14-1.07,11-0.12,14.96,3.53c9.16,7.56,8.59,24.09-1.49,30.62
				c-7,4.69-17.99,3.42-22.71-3.95c-0.04,7.2,0.02,14.4-0.05,21.59c-2.02-0.01-4.03-0.01-6.04-0.02
				c-0.08-17.08-0.01-34.17,0.03-51.24c1.81,0,3.62,0,5.44-0.02C686.24,291.17,686.48,293.07,686.72,294.96z M695.55,294.1
				c-9.76,2.82-11.56,17.34-4.15,23.55c4.89,4.24,13.49,3.41,17.18-2.04c4.31-6.05,3.39-15.83-2.98-20.14
				C702.71,293.4,698.88,293.43,695.55,294.1z"/>
		</g>
		<path class="st0" d="M638.98,289.28c1.94,0,3.9-0.02,5.86-0.16c0.17,7.05-0.02,14.09,0.09,21.14c0.22,3.31,1.02,7.11,4.06,8.99
			c3.61,1.87,8.29,1.66,11.53-0.89c2.87-2.31,4.22-5.98,4.27-9.6c0.09-6.47,0.08-12.95,0.04-19.43c2-0.23,4.01-0.31,6.02-0.17
			c0.04,11.87-0.03,23.75,0.04,35.62c-1.84,0.04-3.67,0.04-5.5,0.02c-0.09-2.05-0.22-4.08-0.43-6.11
			c-4.15,7.53-15.45,9.32-21.78,3.58c-3.67-3.4-4.31-8.79-4.27-13.52C638.96,302.27,638.85,295.77,638.98,289.28z"/>
		<path class="st1" d="M724.96,287.35v0.11h-0.26C724.78,287.43,724.87,287.4,724.96,287.35z"/>
	</g>
	<g>
		<g>
			<path class="st0" d="M98.49,301.83c-1.34-1.26-3.01-2.39-5.02-3.38c-2-1-4.32-1.91-6.96-2.73c-3.14-0.93-5.52-1.93-7.16-3
				c-1.62-1.07-2.44-2.41-2.44-4c0-0.77,0.16-1.51,0.48-2.2c0.32-0.69,0.8-1.28,1.43-1.79c0.63-0.5,1.43-0.9,2.39-1.2
				c0.96-0.29,2.09-0.43,3.4-0.43c1.35,0,2.52,0.17,3.52,0.52c0.99,0.34,1.82,0.82,2.49,1.44c0.67,0.62,1.16,1.37,1.48,2.23
				c0.32,0.86,0.48,1.8,0.48,2.82h9.96c0-2.17-0.42-4.17-1.26-5.99c-0.84-1.83-2.04-3.4-3.59-4.73c-1.55-1.33-3.42-2.36-5.61-3.11
				c-2.19-0.74-4.63-1.11-7.31-1.11c-2.61,0-5.01,0.33-7.19,0.98c-2.18,0.65-4.06,1.57-5.65,2.74c-1.58,1.18-2.81,2.6-3.68,4.27
				c-0.88,1.67-1.31,3.51-1.31,5.53c0,2.1,0.43,3.94,1.28,5.51c0.85,1.57,2.01,2.96,3.49,4.17c1.47,1.21,3.19,2.26,5.15,3.14
				c1.96,0.89,4.04,1.69,6.26,2.39c1.94,0.62,3.53,1.21,4.76,1.76c1.23,0.55,2.19,1.11,2.89,1.69c0.7,0.58,1.17,1.2,1.41,1.88
				c0.24,0.68,0.36,1.43,0.36,2.28c0,0.77-0.14,1.5-0.44,2.17c-0.3,0.68-0.76,1.26-1.38,1.75c-0.63,0.48-1.41,0.87-2.36,1.14
				c-0.95,0.28-2.07,0.41-3.36,0.41c-1.44,0-2.75-0.14-3.91-0.43c-1.18-0.29-2.17-0.75-3.01-1.38c-0.83-0.63-1.47-1.45-1.94-2.47
				c-0.47-1.02-0.7-2.26-0.7-3.72h-10c0,1.81,0.26,3.47,0.78,4.96c0.52,1.5,1.24,2.83,2.16,4c0.92,1.18,1.99,2.19,3.23,3.06
				c1.24,0.86,2.58,1.58,4.04,2.15c1.45,0.58,2.97,1.01,4.57,1.28c1.59,0.28,3.19,0.41,4.78,0.41c2.66,0,5.06-0.3,7.22-0.91
				c2.16-0.61,4-1.48,5.53-2.62c1.52-1.14,2.7-2.54,3.53-4.2c0.83-1.66,1.24-3.55,1.24-5.68c0-1.99-0.34-3.77-1.03-5.34
				C100.84,304.51,99.83,303.1,98.49,301.83z"/>
			<path class="st0" d="M106.31,275.83v8.07h14.61v40.28h9.96V283.9h14.81v-8.07H106.31z"/>
			<path class="st0" d="M170.53,275.83h-9.23l-18,48.35h10.59l3.32-9.96h17.46l3.36,9.96h10.59L170.53,275.83z M159.91,306.15
				l6.01-18.1l6.08,18.1H159.91z"/>
			<path class="st0" d="M220.34,303.96c1.33-0.6,2.52-1.3,3.59-2.13c1.06-0.82,1.97-1.77,2.73-2.87c0.75-1.09,1.33-2.34,1.73-3.75
				c0.39-1.41,0.6-2.99,0.6-4.76c0-2.39-0.41-4.49-1.23-6.31c-0.82-1.81-1.99-3.34-3.52-4.56c-1.53-1.23-3.4-2.16-5.61-2.79
				c-2.22-0.63-4.72-0.94-7.5-0.94h-17.97v48.35h9.96v-17.7h7.94l9.07,17.7h10.69v-0.47L220.34,303.96z M218.51,294.18
				c-0.33,0.87-0.82,1.62-1.47,2.26c-0.65,0.63-1.47,1.11-2.46,1.46c-0.99,0.34-2.13,0.52-3.43,0.52h-8.04V283.9h8.01
				c2.68,0,4.66,0.65,5.96,1.96c1.29,1.3,1.94,3.1,1.94,5.38C219.02,292.32,218.85,293.3,218.51,294.18z"/>
			<path class="st0" d="M231.9,275.83v8.07h14.61v40.28h9.96V283.9h14.81v-8.07H231.9z"/>
			<path class="st0" d="M412.02,289.51c-1.09-2.83-2.6-5.26-4.54-7.29c-1.94-2.03-4.26-3.59-6.97-4.71
				c-2.71-1.12-5.69-1.68-8.95-1.68h-14.88v48.35h14.78c3.28,0,6.27-0.56,9-1.66c2.73-1.1,5.06-2.67,7.02-4.7
				c1.96-2.03,3.48-4.45,4.55-7.27c1.07-2.83,1.61-5.96,1.61-9.42v-2.19C413.65,295.49,413.1,292.34,412.02,289.51z M403.55,301.13
				c0,4.83-1.03,8.54-3.09,11.14c-2.06,2.6-5.06,3.9-9,3.9h-4.82V283.9h4.91c3.92,0,6.9,1.27,8.94,3.81
				c2.03,2.53,3.06,6.26,3.06,11.17V301.13z"/>
			<path class="st0" d="M430.85,316.18v-12.95h19.13v-7.8h-19.13V283.9h22.39v-8.07h-32.35v48.35h32.42v-8.01H430.85z"/>
			<path class="st0" d="M487.96,275.83l-10.95,36.36l-10.89-36.36h-11.06l16.76,48.35h10.4l16.83-48.35H487.96z"/>
		</g>
		<g>
			<path class="st2" d="M321.69,275.83l19.43,31.88v-52.97l-51.17,16.63c-4.12,1.35-6.91,5.19-6.91,9.52v38.5
				c0,4.36,2.81,8.21,6.95,9.53l21.74,6.96v-60.07H321.69z M302.5,324.18h-9.96v-48.35h9.96V324.18z"/>
			<path class="st0" d="M352.96,250.9l-1.91,0.62v72.66h-9.96l-19.39-31.82v46.72L353,349.12c6.46,2.07,13.06-2.75,13.06-9.53
				v-79.18C366.06,253.62,359.43,248.79,352.96,250.9z"/>
		</g>
	</g>
</g>
</svg>
