<?xml version="1.0" encoding="utf-8"?>
<!-- Generator: Adobe Illustrator 24.2.1, SVG Export Plug-In . SVG Version: 6.00 Build 0)  -->
<svg version="1.1" id="Layer_1" xmlns="http://www.w3.org/2000/svg" xmlns:xlink="http://www.w3.org/1999/xlink" x="0px" y="0px"
	 viewBox="0 0 800 600" style="enable-background:new 0 0 800 600;" xml:space="preserve">
<style type="text/css">
	.st0{fill:#105740;}
	.st1{fill:#F2A541;}
</style>
<g>
	<g>
		<path class="st0" d="M321.79,419.78c-1.22-2.04-4.59-3.98-8.47-3.98c-5,0-7.4,2.09-7.4,4.75c0,3.11,3.68,3.98,7.97,4.49
			c7.45,0.92,14.39,2.86,14.39,11.38c0,7.96-7.04,11.38-15.01,11.38c-7.3,0-12.91-2.25-15.57-8.78l5.61-2.91
			c1.58,3.93,5.72,5.67,10.05,5.67c4.24,0,8.22-1.48,8.22-5.36c0-3.37-3.52-4.75-8.27-5.26c-7.3-0.87-14.04-2.81-14.04-10.82
			c0-7.35,7.25-10.36,13.83-10.41c5.56,0,11.33,1.58,14.04,7.09L321.79,419.78z"/>
		<path class="st0" d="M345.27,417.28h-11.33v-6.13c10.31,0,19.04,0,29.4,0v6.13H352v29.6h-6.73V417.28z"/>
		<path class="st0" d="M402.38,411.21v20.47c0,10.57-6.48,15.98-15.47,15.98c-8.57,0-15.87-5.21-15.87-15.98v-20.47h6.69v20.47
			c0,6.43,3.67,9.85,9.24,9.85c5.56,0,8.73-3.73,8.73-9.85v-20.47H402.38z"/>
		<path class="st0" d="M442.95,428.71c0.15,9.03-5.36,18.17-17.86,18.17c-4.39,0-9.65,0-14.04,0v-35.73c4.39,0,9.64,0,14.04,0
			C437.33,411.15,442.8,419.88,442.95,428.71z M417.73,440.4h7.35c8.11,0,11.33-5.92,11.18-11.74c-0.16-5.56-3.42-11.13-11.18-11.13
			h-7.35V440.4z"/>
		<path class="st0" d="M450.55,446.88v-35.73h6.69v35.73H450.55z"/>
		<path class="st0" d="M502.3,429.22c-0.1,9.24-5.77,18.48-18.32,18.48c-12.55,0-18.37-9.03-18.37-18.43
			c0-9.39,6.02-18.83,18.37-18.83C496.28,410.44,502.4,419.88,502.3,429.22z M472.24,429.38c0.15,5.87,3.32,12.15,11.74,12.15
			c8.42,0,11.59-6.33,11.69-12.2c0.1-6.02-3.27-12.76-11.69-12.76C475.56,416.56,472.08,423.35,472.24,429.38z"/>
	</g>
	<g>
		<path class="st1" d="M392.96,214.87l47.88,78.56V162.91l-126.11,40.98c-10.15,3.32-17.03,12.78-17.03,23.46v94.89
			c0,10.74,6.93,20.23,17.13,23.5l53.58,17.16V214.87H392.96z M345.66,334.03h-24.55V214.87h24.55V334.03z"/>
		<path class="st0" d="M470.01,153.43l-4.71,1.53v179.08h-24.55l-47.8-78.41v115.14l77.16,24.71c15.91,5.11,32.19-6.77,32.19-23.48
			V176.87C502.3,160.13,485.96,148.23,470.01,153.43z"/>
	</g>
</g>
</svg>
