<?xml version="1.0" encoding="utf-8"?>
<!-- Generator: Adobe Illustrator 24.2.1, SVG Export Plug-In . SVG Version: 6.00 Build 0)  -->
<svg version="1.1" id="Layer_1" xmlns="http://www.w3.org/2000/svg" xmlns:xlink="http://www.w3.org/1999/xlink" x="0px" y="0px"
	 viewBox="0 0 800 600" style="enable-background:new 0 0 800 600;" xml:space="preserve">
<style type="text/css">
	.st0{fill:#105740;}
	.st1{fill:#FFFFFF;}
	.st2{fill:#F2A541;}
</style>
<rect class="st0" width="800" height="600"/>
<g>
	<g>
		<path class="st1" d="M310.5,437.06c-1.4-2.34-5.26-4.56-9.69-4.56c-5.72,0-8.47,2.39-8.47,5.43c0,3.56,4.21,4.56,9.11,5.14
			c8.52,1.05,16.47,3.27,16.47,13.03c0,9.11-8.06,13.02-17.17,13.02c-8.35,0-14.77-2.57-17.81-10.05l6.42-3.33
			c1.81,4.5,6.54,6.48,11.51,6.48c4.85,0,9.41-1.7,9.41-6.13c0-3.86-4.03-5.43-9.46-6.02c-8.35-0.99-16.06-3.21-16.06-12.38
			c0-8.41,8.29-11.86,15.83-11.91c6.37,0,12.97,1.81,16.06,8.12L310.5,437.06z"/>
		<path class="st1" d="M337.37,434.2H324.4v-7.01c11.8,0,21.78,0,33.64,0v7.01h-12.97v33.87h-7.71V434.2z"/>
		<path class="st1" d="M402.72,427.25v23.42c0,12.09-7.42,18.28-17.7,18.28c-9.81,0-18.16-5.96-18.16-18.28v-23.42h7.65v23.42
			c0,7.36,4.2,11.27,10.57,11.27s9.99-4.26,9.99-11.27v-23.42H402.72z"/>
		<path class="st1" d="M449.15,447.28c0.17,10.34-6.13,20.79-20.44,20.79c-5.02,0-11.04,0-16.06,0v-40.89c5.02,0,11.04,0,16.06,0
			C442.72,427.19,448.97,437.18,449.15,447.28z M420.29,460.66h8.41c9.28,0,12.97-6.78,12.79-13.43
			c-0.18-6.37-3.92-12.73-12.79-12.73h-8.41V460.66z"/>
		<path class="st1" d="M457.84,468.08v-40.89h7.65v40.89H457.84z"/>
		<path class="st1" d="M517.06,447.87c-0.11,10.57-6.6,21.14-20.97,21.14c-14.37,0-21.02-10.34-21.02-21.08
			c0-10.75,6.89-21.55,21.02-21.55C510.17,426.37,517.18,437.18,517.06,447.87z M482.66,448.04c0.17,6.72,3.79,13.9,13.43,13.9
			c9.64,0,13.26-7.24,13.38-13.96c0.11-6.89-3.74-14.6-13.38-14.6C486.46,433.38,482.48,441.15,482.66,448.04z"/>
	</g>
	<g>
		<path class="st2" d="M391.94,202.59l54.79,89.9V143.13l-144.3,46.89c-11.61,3.79-19.49,14.62-19.49,26.85v108.58
			c0,12.28,7.93,23.15,19.6,26.89l61.3,19.64V202.59H391.94z M337.82,338.94h-28.09V202.59h28.09V338.94z"/>
		<path class="st1" d="M480.11,132.28l-5.39,1.75v204.91h-28.09l-54.69-89.72v131.76l88.29,28.28c18.21,5.84,36.83-7.74,36.83-26.87
			V159.11C517.06,139.95,498.36,126.34,480.11,132.28z"/>
	</g>
</g>
</svg>
