<?xml version="1.0" encoding="utf-8"?>
<!-- Generator: Adobe Illustrator 24.2.1, SVG Export Plug-In . SVG Version: 6.00 Build 0)  -->
<svg version="1.1" id="Layer_1" xmlns="http://www.w3.org/2000/svg" xmlns:xlink="http://www.w3.org/1999/xlink" x="0px" y="0px"
	 viewBox="0 0 800 600" style="enable-background:new 0 0 800 600;" xml:space="preserve">
<style type="text/css">
	.st0{fill:#105740;}
	.st1{fill:#F2A541;}
	.st2{fill:#FFFFFF;}
</style>
<rect class="st0" width="800" height="600"/>
<g>
	<g>
		<path class="st1" d="M569.75,355.57c-1.14-1.9-4.28-3.71-7.9-3.71c-4.67,0-6.91,1.95-6.91,4.43c0,2.9,3.43,3.71,7.43,4.19
			c6.95,0.86,13.43,2.67,13.43,10.62c0,7.43-6.57,10.62-14,10.62c-6.81,0-12.04-2.1-14.52-8.19l5.24-2.71
			c1.48,3.67,5.33,5.29,9.38,5.29c3.95,0,7.67-1.38,7.67-5c0-3.14-3.29-4.43-7.71-4.9c-6.81-0.81-13.09-2.62-13.09-10.1
			c0-6.86,6.76-9.67,12.9-9.71c5.19,0,10.57,1.48,13.09,6.62L569.75,355.57z"/>
		<path class="st1" d="M591.65,353.24h-10.57v-5.72c9.62,0,17.76,0,27.43,0v5.72h-10.57v27.62h-6.28V353.24z"/>
		<path class="st1" d="M644.93,347.57v19.09c0,9.86-6.05,14.9-14.43,14.9c-8,0-14.81-4.86-14.81-14.9v-19.09h6.24v19.09
			c0,6,3.43,9.19,8.62,9.19s8.14-3.48,8.14-9.19v-19.09H644.93z"/>
		<path class="st1" d="M682.78,363.91c0.14,8.43-5,16.95-16.66,16.95c-4.1,0-9,0-13.09,0v-33.33c4.09,0,9,0,13.09,0
			C677.54,347.52,682.64,355.67,682.78,363.91z M659.26,374.81h6.86c7.57,0,10.57-5.52,10.43-10.95
			c-0.15-5.19-3.19-10.38-10.43-10.38h-6.86V374.81z"/>
		<path class="st1" d="M689.87,380.86v-33.33h6.24v33.33H689.87z"/>
		<path class="st1" d="M738.14,364.38c-0.09,8.62-5.38,17.24-17.09,17.24c-11.71,0-17.14-8.43-17.14-17.19
			c0-8.76,5.62-17.57,17.14-17.57C732.53,346.86,738.24,355.67,738.14,364.38z M710.1,364.52c0.14,5.48,3.09,11.33,10.95,11.33
			c7.86,0,10.81-5.9,10.91-11.38c0.09-5.62-3.05-11.9-10.91-11.9C713.19,352.57,709.96,358.91,710.1,364.52z"/>
	</g>
	<g>
		<g>
			<path class="st2" d="M113.37,298.51c-2.09-1.97-4.7-3.73-7.82-5.28c-3.13-1.56-6.74-2.98-10.85-4.25
				c-4.9-1.45-8.62-3.01-11.16-4.68c-2.53-1.67-3.81-3.76-3.81-6.24c0-1.21,0.25-2.35,0.75-3.42c0.5-1.07,1.24-2,2.23-2.8
				c0.99-0.78,2.23-1.41,3.73-1.87c1.49-0.45,3.26-0.67,5.31-0.67c2.1,0,3.93,0.26,5.49,0.81c1.55,0.53,2.84,1.28,3.88,2.25
				c1.04,0.96,1.8,2.13,2.31,3.48c0.5,1.35,0.74,2.81,0.74,4.4h15.54c0-3.38-0.66-6.5-1.96-9.35c-1.31-2.85-3.18-5.31-5.6-7.38
				c-2.42-2.08-5.33-3.69-8.76-4.84c-3.41-1.16-7.22-1.74-11.39-1.74c-4.07,0-7.81,0.51-11.21,1.53c-3.4,1.02-6.34,2.45-8.81,4.27
				c-2.47,1.83-4.38,4.05-5.74,6.66c-1.37,2.61-2.05,5.48-2.05,8.63c0,3.28,0.67,6.15,1.99,8.6c1.32,2.45,3.14,4.62,5.44,6.5
				c2.3,1.89,4.97,3.52,8.03,4.9c3.05,1.39,6.31,2.63,9.76,3.73c3.03,0.96,5.51,1.89,7.43,2.75c1.92,0.86,3.41,1.74,4.5,2.64
				c1.09,0.9,1.82,1.88,2.2,2.93c0.38,1.06,0.56,2.24,0.56,3.55c0,1.21-0.22,2.34-0.69,3.39c-0.47,1.06-1.19,1.96-2.15,2.72
				c-0.98,0.75-2.19,1.36-3.68,1.78c-1.48,0.43-3.23,0.65-5.24,0.65c-2.25,0-4.28-0.22-6.11-0.67c-1.83-0.46-3.39-1.17-4.7-2.15
				c-1.29-0.99-2.3-2.27-3.02-3.86c-0.73-1.59-1.09-3.52-1.09-5.8H61.85c0,2.83,0.4,5.41,1.22,7.74c0.81,2.33,1.93,4.41,3.37,6.24
				c1.43,1.83,3.11,3.41,5.05,4.77c1.93,1.35,4.03,2.47,6.3,3.36c2.26,0.9,4.63,1.57,7.12,1.99c2.48,0.43,4.97,0.65,7.45,0.65
				c4.14,0,7.9-0.47,11.27-1.42c3.37-0.95,6.24-2.31,8.63-4.09c2.37-1.78,4.22-3.96,5.51-6.55c1.29-2.6,1.94-5.54,1.94-8.86
				c0-3.11-0.53-5.88-1.6-8.33C117.04,302.69,115.46,300.48,113.37,298.51z"/>
			<path class="st2" d="M125.57,257.96v12.58h22.79v62.83h15.54v-62.83h23.1v-12.58H125.57z"/>
			<path class="st2" d="M225.73,257.96h-14.39l-28.08,75.42h16.52l5.18-15.54h27.24l5.24,15.54h16.51L225.73,257.96z M209.17,305.24
				l9.37-28.23l9.48,28.23H209.17z"/>
			<path class="st2" d="M303.43,301.83c2.08-0.93,3.93-2.04,5.6-3.32c1.65-1.28,3.07-2.77,4.25-4.48c1.17-1.71,2.07-3.66,2.69-5.85
				c0.61-2.19,0.93-4.66,0.93-7.43c0-3.73-0.65-7.01-1.92-9.85c-1.28-2.83-3.11-5.2-5.49-7.11c-2.38-1.92-5.3-3.37-8.76-4.36
				c-3.46-0.99-7.36-1.47-11.7-1.47h-28.03v75.42h15.54v-27.61h12.38l14.14,27.61h16.67v-0.73L303.43,301.83z M300.58,286.57
				c-0.51,1.36-1.28,2.53-2.3,3.52c-1.02,0.99-2.3,1.74-3.84,2.28c-1.54,0.53-3.32,0.81-5.35,0.81h-12.54v-22.64h12.49
				c4.18,0,7.27,1.02,9.3,3.06c2.01,2.04,3.03,4.83,3.03,8.38C301.36,283.68,301.1,285.21,300.58,286.57z"/>
			<path class="st2" d="M321.46,257.96v12.58h22.79v62.83h15.54v-62.83h23.1v-12.58H321.46z"/>
			<path class="st2" d="M602.4,279.29c-1.7-4.42-4.05-8.2-7.08-11.37c-3.02-3.16-6.65-5.61-10.88-7.35
				c-4.23-1.75-8.88-2.62-13.96-2.62h-23.2v75.42h23.05c5.11,0,9.78-0.87,14.03-2.6c4.25-1.72,7.9-4.17,10.95-7.32
				c3.06-3.16,5.43-6.94,7.1-11.34c1.67-4.41,2.51-9.3,2.51-14.69V294C604.93,288.62,604.08,283.71,602.4,279.29z M589.19,297.42
				c0,7.54-1.61,13.32-4.82,17.38c-3.21,4.06-7.89,6.08-14.03,6.08h-7.52v-50.35h7.66c6.12,0,10.76,1.98,13.94,5.94
				c3.17,3.95,4.77,9.76,4.77,17.43V297.42z"/>
			<path class="st2" d="M631.76,320.88v-20.2h29.84v-12.17h-29.84v-17.98h34.91v-12.58h-50.45v75.42h50.56v-12.49H631.76z"/>
			<path class="st2" d="M720.85,257.96l-17.09,56.72l-16.99-56.72h-17.25l26.15,75.42h16.22l26.26-75.42H720.85z"/>
		</g>
		<g>
			<path class="st1" d="M461.51,257.96l30.3,49.72v-82.61L412,251c-6.42,2.1-10.78,8.09-10.78,14.85v60.06
				c0,6.79,4.39,12.8,10.84,14.87l33.91,10.86v-93.69H461.51z M431.58,333.37h-15.54v-75.42h15.54V333.37z"/>
			<path class="st2" d="M510.28,219.07l-2.98,0.97v113.34h-15.54l-30.25-49.63v72.87l48.83,15.64c10.07,3.23,20.37-4.28,20.37-14.86
				V233.91C530.71,223.31,520.37,215.78,510.28,219.07z"/>
		</g>
	</g>
</g>
</svg>
